<?xml version="1.0" encoding="UTF-8"?>
<!-- Created with Inkscape (http://www.inkscape.org/) -->
<svg width="300" height="400" version="1.1" viewBox="0 0 300 400" xmlns="http://www.w3.org/2000/svg" xmlns:cc="http://creativecommons.org/ns#" xmlns:dc="http://purl.org/dc/elements/1.1/" xmlns:rdf="http://www.w3.org/1999/02/22-rdf-syntax-ns#">
 <metadata>
  <rdf:RDF>
   <cc:Work rdf:about="">
    <dc:format>image/svg+xml</dc:format>
    <dc:type rdf:resource="http://purl.org/dc/dcmitype/StillImage"/>
   </cc:Work>
  </rdf:RDF>
 </metadata>
 <g transform="translate(0 -652.36)">
  <g fill-rule="evenodd">
   <g transform="translate(1034.3 648.89)" fill="#b93c3c">
    <path d="m-973.9 230.33c101.51 10.776 95.086-15.762 180.06-18.577 18.885-2.7457 17.635-17.46-0.44879-16.017-90.368 2.2431-58.779 34.939-177.69 16.092-28.997-5.176-24.264 14.568-1.9191 18.502z"/>
    <path d="m-882.64 187.14c1.3115-3.9243-7.9972-10.181-13.219-3.4724-4.8312 7.4794-6.264 12.156-10.86 17.42-1.9582 2.393-2.2413 7.7252-0.21694 9.2676 7.5683 6.1988 6.7244 4.7842 11.5 14.738l20.531-1.762c-6.5199-8.5895-7.597-7.8349-10.131-16.424-1.1648-9.327-0.80813-10.176 2.3973-19.767z"/>
    <path d="m-856.84 149.17c-2.0724-2.1647-3.3096-2.9321-6.2134 0l-15.391 15.541c-1.3476 1.5004-1.3716 3.7049-0.26356 4.97l9.1696 8.8336c4.3536 4.252 5.464 7.314 2.8997 12.336-3.4197 9.6165-5.986 19.367-6.0966 24.708l21.181-3.4871c-3.9594-9.8174-3.8709-12.357 2.8652-21.646 5.5591-6.3269 10.933-7.7739 5.9954-16.417z"/>
    <path d="m-834.44 229.53c-2.3796 3.3e-4 -5.1154 0.35227-7.9863 0.67579-25.981 4.2395-44.632 13.662-87.783 12.141-5.8413 0.0296-10.797 3.108-10.592 7.5898 0.41578 9.893 7.7001 62.177 8.3047 66.889 0.85285 6.4176 9.7902 6.988 10.967 1.3418 0.21553-1.0342 0.2214-3.9576 0.0977-7.9961 0.54781-1.1435 1.3979-2.0202 2.3086-2.1836l56.982-5.0918c0.57955 7e-3 1.0141 0.54453 1.3203 1.3301-0.4418 20.093-0.68432 39.742-0.25391 46.623 0.12358 1.5202 0.0514 3.1202 1.5703 4.4864 3.6269 3.0336 24.108 1.3634 29.408-1.9473 1.4685-1.0778 1.9999-1.583 2.1973-3.8301-2.961-33.992-0.66802-77.217 1.6055-110.87 0.59643-7.4529-2.9113-9.155-8.1465-9.1543zm-26.98 16.764c5.6522-1.3893 2.022 15.829 0.0879 15.877l-58.828 4.6113c-5.1272-1.0242-4.8804-13.066-1.4219-13.229 26.638-0.89616 35.744-3.1811 60.162-7.2598zm-0.12891 29.152c1.7056-0.1306 2.0175 12.385-0.38086 12.586l-57.32 4.7969c-4.1011-1.1506-4.3522-11.962-0.7793-12.492z"/>
    <path d="m-881.54 246.32-19.233 0.63476-5.2909 90.559c-0.75114 10.292 4.492 20.611 11.241 20.763l18.742-6.5465z"/>
    <path d="m-942.64 354.94 0.84624 8.0276c54.246 18.284 41.637-8.576 96.894-15.151l-0.63469-4.9284c-42.242-2.9872-64.353 13.179-97.106 12.052z"/>
    <path d="m-947.82 295.51c-4.7907-14.349-18.048-11.531-15.57 0.88508 13.897 43.448 17.942 67.497 19.799 70.859 10.792 18.228 18.403 13.454 19.078-2.4339 0.11137-4.8491-14.234-43.495-23.308-69.31z"/>
    <path d="m-990.5 324.51c-8.3591-1.3041-7.6005 9.0842-3.3165 11.288 59.847 26.468 123.84-8.8656 177.97-5.691 2.0582 0.36905 5.3125 1.5641 8.2944 3.202 9.5567 5.0481 3.7339 19.51-0.97638 22.479-21.536 9.8449-16.514 0.091-40.673 11.25-2.2774 1.4605-8.2572 2.5966-10.482 1.6848-8.9433-2.9779-16.302-8.1024-22.15-12.664l-11.188 5.6458c6.9054 8.6009 17.1 12.672 25.541 16.371 6.7472 3.2135 14.126 2.8541 19.029 3.0056 25.108 0.3448 48.589-9.2971 60.403-10.755 3.458-0.5303 7.4832-6.5254 9.0505-9.3096 9.6914-15.872 5.6882-18.57-1.0856-35.189-3.8494-6.2321-14.98-8.0115-20.828-8.8046-60.718-2.5743-138.25 18.812-189.58 7.4875z"/>
   </g>
   <g transform="matrix(1.08 0 0 .95915 -11.636 29.662)">
    <path d="m196.2 673.02c-9.7042 0.0945-20.984 1.0393-34.275 3.0898-29.384 5.4862-80.089 30.043-95.83 22.552-6.5679-3.3436-14.09-8.2742-20.986-12.273-8.7293-5.3763-14.173-2.6912-9.791 9.3047l57.8 75.626c3.7012 6.3203 10.9 5.2126 16.35 3.7598 38.288-15.075 61.258-10.002 93.057 0.3823 7.3554 2.2235 10.835 0.7596 16.23-3.8792 18.041-17.199 43.534-41.938 43.993-49.608 0.55707-3.5412 3.2436-24.469-2.9004-29.08-14.42-9.7066-28.989-20.212-63.646-19.875zm31.338 29.873c4.0899 3.922 3.0991 9.2201 0.34961 13.988-7.2457 13.149-13.563 23.152-25.932 34.462-2.1395 1.7406-4.2573 3.5293-6.6327 3.6574-14.606-1.9506-5.8497-12.66-76.938 1.3691-4.843 0.0955-6.992-0.94675-8.7441-2.7969l-27.104-38.295c-2.6333-5.4393 2.4873-4.5239 5.7715-4.5469 39.938 0.11061 96.302-40.711 139.23-7.8379z"/>
    <path d="m119.86 691.94c2.814 21.72 3.5745 43.44 3.9963 65.161l15.048-0.49458c14.54-23.121 8.7889-45.486 5.4495-68.623z"/>
    <path d="m193.62 674.85c-4.1409-18.993-21.211-9.0692-23.277-0.597l-12.565 80.372 15.706 0.98916c10.273-28.167 22.455-64.536 27.788-71.466z"/>
   </g>
  </g>
 </g>
</svg>
