<?xml version="1.0" encoding="UTF-8"?>
<!-- Created with Inkscape (http://www.inkscape.org/) -->
<svg width="300" height="400" version="1.1" viewBox="0 0 300 400" xmlns="http://www.w3.org/2000/svg" xmlns:cc="http://creativecommons.org/ns#" xmlns:dc="http://purl.org/dc/elements/1.1/" xmlns:rdf="http://www.w3.org/1999/02/22-rdf-syntax-ns#">
 <metadata>
  <rdf:RDF>
   <cc:Work rdf:about="">
    <dc:format>image/svg+xml</dc:format>
    <dc:type rdf:resource="http://purl.org/dc/dcmitype/StillImage"/>
   </cc:Work>
  </rdf:RDF>
 </metadata>
 <g transform="translate(0 -652.36)" fill="#d71e1e">
  <g transform="translate(1034.3 648.89)" fill-rule="evenodd">
   <path d="m-973.9 230.33c101.51 10.776 95.086-15.762 180.06-18.577 18.885-2.7457 17.635-17.46-0.44879-16.017-90.368 2.2431-58.779 34.939-177.69 16.092-28.997-5.176-24.264 14.568-1.9191 18.502z"/>
   <path d="m-882.64 187.14c1.3115-3.9243-7.9972-10.181-13.219-3.4724-4.8312 7.4794-6.264 12.156-10.86 17.42-1.9582 2.393-2.2413 7.7252-0.21694 9.2676 7.5683 6.1988 6.7244 4.7842 11.5 14.738l20.531-1.762c-6.5199-8.5895-7.597-7.8349-10.131-16.424-1.1648-9.327-0.80813-10.176 2.3973-19.767z"/>
   <path d="m-856.84 149.17c-2.0724-2.1647-3.3096-2.9321-6.2134 0l-15.391 15.541c-1.3476 1.5004-1.3716 3.7049-0.26356 4.97l9.1696 8.8336c4.3536 4.252 5.464 7.314 2.8997 12.336-3.4197 9.6165-5.986 19.367-6.0966 24.708l21.181-3.4871c-3.9594-9.8174-3.8709-12.357 2.8652-21.646 5.5591-6.3269 10.933-7.7739 5.9954-16.417z"/>
   <path d="m-834.44 229.53c-2.3796 3.3e-4 -5.1154 0.35227-7.9863 0.67579-25.981 4.2395-44.632 13.662-87.783 12.141-5.8413 0.0296-10.797 3.108-10.592 7.5898 0.41578 9.893 7.7001 62.177 8.3047 66.889 0.85285 6.4176 9.7902 6.988 10.967 1.3418 0.21553-1.0342 0.2214-3.9576 0.0977-7.9961 0.54781-1.1435 1.3979-2.0202 2.3086-2.1836l56.982-5.0918c0.57955 7e-3 1.0141 0.54453 1.3203 1.3301-0.4418 20.093-0.68432 39.742-0.25391 46.623 0.12358 1.5202 0.0514 3.1202 1.5703 4.4864 3.6269 3.0336 24.108 1.3634 29.408-1.9473 1.4685-1.0778 1.9999-1.583 2.1973-3.8301-2.961-33.992-0.66802-77.217 1.6055-110.87 0.59643-7.4529-2.9113-9.155-8.1465-9.1543zm-26.98 16.764c5.6522-1.3893 2.022 15.829 0.0879 15.877l-58.828 4.6113c-5.1272-1.0242-4.8804-13.066-1.4219-13.229 26.638-0.89616 35.744-3.1811 60.162-7.2598zm-0.12891 29.152c1.7056-0.1306 2.0175 12.385-0.38086 12.586l-57.32 4.7969c-4.1011-1.1506-4.3522-11.962-0.7793-12.492z"/>
   <path d="m-881.54 246.32-19.233 0.63476-5.2909 90.559c-0.75114 10.292 4.492 20.611 11.241 20.763l18.742-6.5465z"/>
   <path d="m-942.64 354.94 0.84624 8.0276c54.246 18.284 41.637-8.576 96.894-15.151l-0.63469-4.9284c-42.242-2.9872-64.353 13.179-97.106 12.052z"/>
   <path d="m-947.82 295.51c-4.7907-14.349-18.048-11.531-15.57 0.88508 13.897 43.448 17.942 67.497 19.799 70.859 10.792 18.228 18.403 13.454 19.078-2.4339 0.11137-4.8491-14.234-43.495-23.308-69.31z"/>
   <path d="m-990.5 324.51c-8.3591-1.3041-7.6005 9.0842-3.3165 11.288 59.847 26.468 123.84-8.8656 177.97-5.691 2.0582 0.36905 5.3125 1.5641 8.2944 3.202 9.5567 5.0481 3.7339 19.51-0.97638 22.479-21.536 9.8449-16.514 0.091-40.673 11.25-2.2774 1.4605-8.2572 2.5966-10.482 1.6848-8.9433-2.9779-16.302-8.1024-22.15-12.664l-11.188 5.6458c6.9054 8.6009 17.1 12.672 25.541 16.371 6.7472 3.2135 14.126 2.8541 19.029 3.0056 25.108 0.3448 48.589-9.2971 60.403-10.755 3.458-0.5303 7.4832-6.5254 9.0505-9.3096 9.6914-15.872 5.6882-18.57-1.0856-35.189-3.8494-6.2321-14.98-8.0115-20.828-8.8046-60.718-2.5743-138.25 18.812-189.58 7.4875z"/>
  </g>
  <g transform="matrix(.88299 0 0 .98817 13.191 3.6488)" fill-rule="evenodd">
   <path d="m120.28 677.75c-7.8385 4.6817-12.064 5.8846-15.284 15.769-0.51069 1.5984-0.89802 7.8758 1.4583 12.182 20.422 17.875-53.388 56.712-79.774 73.058-17.174 10.058-11.335 21.339 11.193 11.453 29.066-12.078 80.297-26.143 90.366-62.505 0.0974-3.9888 3.0747-5.6683 7.3309-6.618 6.5143-1.4261 0.79247-27.814-2.9512-34.692-3.7436-6.8773-9.8042-9.9592-12.338-8.647z"/>
   <path d="m99.312 743.71c1.3569 4.6387 6.0873 16.552 5.2238 21.546-3.9778 9.1256-9.5396 12.594-11.761 22.305-0.95193 5.3424 18.6 21.859 24.214 19.247 7.1723-4.3481 10.984-13.344 10.865-17.385-0.77831-19.434-13.169-33.196-13.616-55.569z"/>
   <path d="m128.52 684.94c46.746 15.517 66.839-16.275 109.1-24.485 12.117-2.3539 24.184 2.3249 33.482 4.1634 20.109 4.5142 4.2278 31.739-11.122 25.409-36.558-16.134-67.906 8.156-102.61 15.751-2.5662 0.41461-4.134-2.71-5.7732-4.8322-5.31-6.875-13.324-1.2031-19.859-3.3477z"/>
   <path d="m183.56 691.9-31.765 6.9168c9.8502 10.819-13.475 53.482-25.203 81.46l28.507-3.8469c2.8637-29.115 21.097-56.086 28.461-84.53z"/>
   <path d="m114.45 721.8c15.8 34.888 69.15-14.001 103.23-11.181v19.422c-34.972-5.6664-93.653 35.538-107.63 6.7125z"/>
   <path d="m210.57 701.26c-2.7855-0.46571-10.745 7.2518-10.726 10.046 0.68906 24.488 0.0838 48.43-2.1468 72.918-0.80858 11.468 23.903 2.3839 24.925-3.0486 3.4354-25.639 1.9579-74.428-0.25808-75.638-3.4204-2.0136-6.7258-3.3576-11.794-4.2776z"/>
   <path d="m112.96 778.82c109.32-31.088 166.21-8.2278 169.39-2.2544 2.148 3.2777 1.6838 10.109-0.57407 13.531-18.858 25.077-119.63-39.367-165.07 10.708z"/>
  </g>
  <circle cx="53.414" cy="720.52" r="19.783"/>
 </g>
</svg>
