<?xml version="1.0" encoding="UTF-8"?>
<!-- Created with Inkscape (http://www.inkscape.org/) -->
<svg width="300" height="400" version="1.1" viewBox="0 0 300 400" xmlns="http://www.w3.org/2000/svg" xmlns:cc="http://creativecommons.org/ns#" xmlns:dc="http://purl.org/dc/elements/1.1/" xmlns:rdf="http://www.w3.org/1999/02/22-rdf-syntax-ns#">
 <metadata>
  <rdf:RDF>
   <cc:Work rdf:about="">
    <dc:format>image/svg+xml</dc:format>
    <dc:type rdf:resource="http://purl.org/dc/dcmitype/StillImage"/>
   </cc:Work>
  </rdf:RDF>
 </metadata>
 <g transform="translate(0 -652.36)">
  <g fill-rule="evenodd">
   <g transform="translate(1034.3 648.89)" fill="#b93c3c">
    <path d="m-973.9 230.33c101.51 10.776 95.086-15.762 180.06-18.577 18.885-2.7457 17.635-17.46-0.44879-16.017-90.368 2.2431-58.779 34.939-177.69 16.092-28.997-5.176-24.264 14.568-1.9191 18.502z"/>
    <path d="m-882.64 187.14c1.3115-3.9243-7.9972-10.181-13.219-3.4724-4.8312 7.4794-6.264 12.156-10.86 17.42-1.9582 2.393-2.2413 7.7252-0.21694 9.2676 7.5683 6.1988 6.7244 4.7842 11.5 14.738l20.531-1.762c-6.5199-8.5895-7.597-7.8349-10.131-16.424-1.1648-9.327-0.80813-10.176 2.3973-19.767z"/>
    <path d="m-856.84 149.17c-2.0724-2.1647-3.3096-2.9321-6.2134 0l-15.391 15.541c-1.3476 1.5004-1.3716 3.7049-0.26356 4.97l9.1696 8.8336c4.3536 4.252 5.464 7.314 2.8997 12.336-3.4197 9.6165-5.986 19.367-6.0966 24.708l21.181-3.4871c-3.9594-9.8174-3.8709-12.357 2.8652-21.646 5.5591-6.3269 10.933-7.7739 5.9954-16.417z"/>
    <path d="m-834.44 229.53c-2.3796 3.3e-4 -5.1154 0.35227-7.9863 0.67579-25.981 4.2395-44.632 13.662-87.783 12.141-5.8413 0.0296-10.797 3.108-10.592 7.5898 0.41578 9.893 7.7001 62.177 8.3047 66.889 0.85285 6.4176 9.7902 6.988 10.967 1.3418 0.21553-1.0342 0.2214-3.9576 0.0977-7.9961 0.54781-1.1435 1.3979-2.0202 2.3086-2.1836l56.982-5.0918c0.57955 7e-3 1.0141 0.54453 1.3203 1.3301-0.4418 20.093-0.68432 39.742-0.25391 46.623 0.12358 1.5202 0.0514 3.1202 1.5703 4.4864 3.6269 3.0336 24.108 1.3634 29.408-1.9473 1.4685-1.0778 1.9999-1.583 2.1973-3.8301-2.961-33.992-0.66802-77.217 1.6055-110.87 0.59643-7.4529-2.9113-9.155-8.1465-9.1543zm-26.98 16.764c5.6522-1.3893 2.022 15.829 0.0879 15.877l-58.828 4.6113c-5.1272-1.0242-4.8804-13.066-1.4219-13.229 26.638-0.89616 35.744-3.1811 60.162-7.2598zm-0.12891 29.152c1.7056-0.1306 2.0175 12.385-0.38086 12.586l-57.32 4.7969c-4.1011-1.1506-4.3522-11.962-0.7793-12.492z"/>
    <path d="m-881.54 246.32-19.233 0.63476-5.2909 90.559c-0.75114 10.292 4.492 20.611 11.241 20.763l18.742-6.5465z"/>
    <path d="m-942.64 354.94 0.84624 8.0276c54.246 18.284 41.637-8.576 96.894-15.151l-0.63469-4.9284c-42.242-2.9872-64.353 13.179-97.106 12.052z"/>
    <path d="m-947.82 295.51c-4.7907-14.349-18.048-11.531-15.57 0.88508 13.897 43.448 17.942 67.497 19.799 70.859 10.792 18.228 18.403 13.454 19.078-2.4339 0.11137-4.8491-14.234-43.495-23.308-69.31z"/>
    <path d="m-990.5 324.51c-8.3591-1.3041-7.6005 9.0842-3.3165 11.288 59.847 26.468 123.84-8.8656 177.97-5.691 2.0582 0.36905 5.3125 1.5641 8.2944 3.202 9.5567 5.0481 3.7339 19.51-0.97638 22.479-21.536 9.8449-16.514 0.091-40.673 11.25-2.2774 1.4605-8.2572 2.5966-10.482 1.6848-8.9433-2.9779-16.302-8.1024-22.15-12.664l-11.188 5.6458c6.9054 8.6009 17.1 12.672 25.541 16.371 6.7472 3.2135 14.126 2.8541 19.029 3.0056 25.108 0.3448 48.589-9.2971 60.403-10.755 3.458-0.5303 7.4832-6.5254 9.0505-9.3096 9.6914-15.872 5.6882-18.57-1.0856-35.189-3.8494-6.2321-14.98-8.0115-20.828-8.8046-60.718-2.5743-138.25 18.812-189.58 7.4875z"/>
   </g>
   <g>
    <path d="m138.73 661.52c-6.6616-6.9508-9.1444-5.7709-14.01-1.9511-3.9 3.9977-7.6141 6.227-9.4029 14.146-0.9672 4.3586-0.1357 13.042 1.9511 20.487 1.2872 3.6616 6.0191 7.3811 11.005 8.78 1.7089 0.54178-0.6227 8.6716-2.4389 13.007l18.21-0.97556c-1.542-4.9002-5.4918-12.838-4.5526-14.308 5.0996-7.9818 10.834-18.724 10.86-22.763 0.07-3.6813-5.6263-10.163-11.622-16.422z"/>
    <path d="m64.55 730.19c-11.592-1.2-23.54-15.848 3.0287-14.308 42.501 3.2458 75.194-0.24655 131.69-25.611 6.9088-1.686 58.324 12.344 60.432 17.56 2.6536 7.9086-1.0286 30.331-12.666 29.494-16.472-5.205-53.428-24.456-66.374-20.983-49.456 12.159-66.638 17.118-116.11 13.848z"/>
    <path d="m133.87 733.01c-4.023-2.1393-24.469 13.505-24.897 16.39-0.8458 5.3252 4.7863 12.92 2.2994 14.189-35.138 18.204-47.383 19.284-65.468 22.487-21.424 4.1979-16.072 15.92 0 14.165 50.84-5.2952 39.721-11.786 92.174-21.982 4.0787-0.89675 11.869-18.058 11.869-24.792 0-5.7299-10.277-17.435-15.977-20.457z"/>
    <path d="m160.51 742.25c-2.0319-0.11794-2.5658 0.66243-2.0807 1.8141 10.907 25.898 58.795 61.458 61.326 56.121 7.4362-17.12 5.1809-19.571 2.0287-24.69-11.855-19.096-43.212-31.99-61.274-33.245z"/>
   </g>
  </g>
 </g>
</svg>
