<?xml version="1.0" encoding="UTF-8"?>
<!-- Created with Inkscape (http://www.inkscape.org/) -->
<svg width="300" height="400" version="1.1" viewBox="0 0 300 400" xmlns="http://www.w3.org/2000/svg" xmlns:cc="http://creativecommons.org/ns#" xmlns:dc="http://purl.org/dc/elements/1.1/" xmlns:rdf="http://www.w3.org/1999/02/22-rdf-syntax-ns#" xmlns:xlink="http://www.w3.org/1999/xlink">
 <metadata>
  <rdf:RDF>
   <cc:Work rdf:about="">
    <dc:format>image/svg+xml</dc:format>
    <dc:type rdf:resource="http://purl.org/dc/dcmitype/StillImage"/>
   </cc:Work>
  </rdf:RDF>
 </metadata>
 <g transform="translate(0 -652.36)">
  <g transform="matrix(.89332 0 0 .89332 -207.39 341.03)">
   <circle cx="400" cy="572.36" r="160" fill="#fff" stroke="#000" stroke-linejoin="round" stroke-width="10.033"/>
   <circle cx="400" cy="572.36" r="145" fill="#000037" stroke="#000037" stroke-linejoin="round" stroke-width="10.033"/>
   <g transform="translate(.35355)">
    <path id="path5460" d="m392.33 496.48c-8.2725-82.935 24.083-82.939 15.287 0" fill="none" stroke="#fff" stroke-linecap="round" stroke-width="8.9553"/>
    <g transform="translate(-31,-64.5)">
     <use transform="matrix(.93969 .34202 -.34202 .93969 250.39 -36.968)" width="100%" height="100%" xlink:href="#path5460"/>
     <use transform="matrix(.76604 .64279 -.64279 .76604 491.62 -58.032)" width="100%" height="100%" xlink:href="#path5460"/>
     <use transform="matrix(.5 .86603 -.86603 .5 725.51 4.6818)" width="100%" height="100%" xlink:href="#path5460"/>
     <use transform="matrix(.17365 .98481 -.98481 .17365 923.85 143.61)" width="100%" height="100%" xlink:href="#path5460"/>
     <use transform="matrix(-.17365 .98481 -.98481 -.17365 1062.7 341.99)" width="100%" height="100%" xlink:href="#path5460"/>
     <use transform="matrix(-.5 .86603 -.86603 -.5 1125.3 575.9)" width="100%" height="100%" xlink:href="#path5460"/>
     <use transform="matrix(-.76604 .64279 -.64279 -.76604 1104.2 817.12)" width="100%" height="100%" xlink:href="#path5460"/>
     <use transform="matrix(-.93969 .34202 -.34202 -.93969 1001.8 1036.6)" width="100%" height="100%" xlink:href="#path5460"/>
     <use transform="matrix(-1 0 0 -1 830.56 1207.8)" width="100%" height="100%" xlink:href="#path5460"/>
     <use transform="matrix(-.93969 -.34202 .34202 -.93969 611.08 1310.1)" width="100%" height="100%" xlink:href="#path5460"/>
     <use transform="matrix(-.76604 -.64279 .64279 -.76604 369.85 1331.1)" width="100%" height="100%" xlink:href="#path5460"/>
     <use transform="matrix(-.5 -.86603 .86603 -.5 135.96 1268.4)" width="100%" height="100%" xlink:href="#path5460"/>
     <use transform="matrix(-.17365 -.98481 .98481 -.17365 -62.375 1129.5)" width="100%" height="100%" xlink:href="#path5460"/>
     <use transform="matrix(.17365 -.98481 .98481 .17365 -201.23 931.11)" width="100%" height="100%" xlink:href="#path5460"/>
     <use transform="matrix(.5 -.86603 .86603 .5 -263.87 697.2)" width="100%" height="100%" xlink:href="#path5460"/>
     <use transform="matrix(.76604 -.64279 .64279 .76604 -242.72 455.97)" width="100%" height="100%" xlink:href="#path5460"/>
     <use transform="matrix(.93969 -.34202 .34202 .93969 -140.34 236.53)" width="100%" height="100%" xlink:href="#path5460"/>
    </g>
   </g>
   <circle cx="400" cy="572.36" r="84.474" fill="#fff" stroke="#000037" stroke-linejoin="round" stroke-width="10.24"/>
   <circle cx="400" cy="572.36" r="72.315" fill="#b93c3c"/>
   <g id="g6038" transform="translate(-.17678 .088388)">
    <path d="m401.33 554.24c-3.1454-9.9402-29.568-32.568-1.2221-34.015 29.37 1.6006 0.87135 23.529-1.7187 34.178" fill="none" stroke="#fff" stroke-width="23.11"/>
    <path d="m400 555.19v-25.658" fill="none" stroke="#b93c3c" stroke-linecap="round" stroke-linejoin="round" stroke-width="6"/>
    <circle cx="400" cy="527.83" r="4.8186" fill="#b93c3c"/>
    <path id="path6030" d="m404.69 557.49 6.5651-16.11" fill="none" stroke="#b93c3c" stroke-linecap="round" stroke-width="4"/>
    <use transform="matrix(-1 0 0 1 799.94 0)" width="100%" height="100%" xlink:href="#path6030"/>
   </g>
   <circle cx="400" cy="572.36" r="16.035" fill="#fff" stroke="#b93c3c" stroke-linecap="round" stroke-linejoin="round" stroke-width="6.6696"/>
   <circle cx="400" cy="572.36" r="8.5366" fill="#b93c3c"/>
   <use id="use6047" transform="matrix(.30902 -.95106 .95106 .30902 -267.97 775.89)" width="100%" height="100%" xlink:href="#g6038"/>
   <use id="use6049" transform="matrix(.30902 -.95106 .95106 .30902 -267.97 775.89)" width="100%" height="100%" xlink:href="#use6047"/>
   <use id="use6051" transform="matrix(.30902 -.95106 .95106 .30902 -267.97 775.89)" width="100%" height="100%" xlink:href="#use6049"/>
   <use transform="matrix(.30902 -.95106 .95106 .30902 -267.97 775.89)" width="100%" height="100%" xlink:href="#use6051"/>
  </g>
 </g>
</svg>
