<?xml version="1.0" encoding="UTF-8"?>
<!-- Created with Inkscape (http://www.inkscape.org/) -->
<svg width="300" height="400" version="1.1" viewBox="0 0 300 400" xmlns="http://www.w3.org/2000/svg" xmlns:cc="http://creativecommons.org/ns#" xmlns:dc="http://purl.org/dc/elements/1.1/" xmlns:rdf="http://www.w3.org/1999/02/22-rdf-syntax-ns#" xmlns:xlink="http://www.w3.org/1999/xlink">
 <metadata>
  <rdf:RDF>
   <cc:Work rdf:about="">
    <dc:format>image/svg+xml</dc:format>
    <dc:type rdf:resource="http://purl.org/dc/dcmitype/StillImage"/>
   </cc:Work>
  </rdf:RDF>
 </metadata>
 <g transform="translate(0 -652.36)">
  <g transform="translate(-3.5707e-7 -.81785)">
   <g transform="matrix(.76584 0 0 .76584 512.08 490.48)">
    <circle cx="-472.78" cy="341.26" r="107.57" fill="#fff" stroke="#000" stroke-linejoin="round" stroke-width="17.217"/>
    <circle cx="-472.78" cy="341.63" r="87.813" fill="#000037"/>
    <g id="g4247" transform="matrix(.10477 0 0 .085875 -506.33 359.11)">
     <path d="m-93.329-74.125a163.92 163.92 0 0 1-224.6-13.081 163.92 163.92 0 0 1 0-224.98 163.92 163.92 0 0 1 224.6-13.081" fill="none" stroke="#fff" stroke-linecap="round" stroke-linejoin="round" stroke-width="125.71"/>
    </g>
    <use id="use4252" transform="matrix(.5 -.86603 .86603 .5 -532.67 -238.47)" width="100%" height="100%" xlink:href="#g4247"/>
    <use id="use4254" transform="matrix(.5 -.86603 .86603 .5 -533.75 -239.04)" width="100%" height="100%" xlink:href="#use4252"/>
    <use id="use4256" transform="matrix(.5 -.86603 .86603 .5 -533.75 -239.04)" width="100%" height="100%" xlink:href="#use4254"/>
    <use id="use4258" transform="matrix(.5 -.86603 .86603 .5 -533.75 -239.04)" width="100%" height="100%" xlink:href="#use4256"/>
    <use transform="matrix(.5 -.86603 .86603 .5 -533.75 -239.04)" width="100%" height="100%" xlink:href="#use4258"/>
    <circle cx="-472.93" cy="341.52" r="18.188" fill="none" stroke="#fff" stroke-linejoin="round" stroke-width="12.286"/>
   </g>
   <g transform="matrix(.76584 0 0 .76584 512.08 692.98)">
    <circle cx="-472.78" cy="341.26" r="107.57" fill="#fff" stroke="#000" stroke-linejoin="round" stroke-width="17.217"/>
    <circle cx="-472.78" cy="341.63" r="87.813" fill="#000037"/>
    <g transform="matrix(.10477 0 0 .085875 -506.33 359.11)">
     <path d="m-93.329-74.125a163.92 163.92 0 0 1-224.6-13.081 163.92 163.92 0 0 1 0-224.98 163.92 163.92 0 0 1 224.6-13.081" fill="none" stroke="#fff" stroke-linecap="round" stroke-linejoin="round" stroke-width="125.71"/>
    </g>
    <use transform="matrix(.5 -.86603 .86603 .5 -532.67 -238.47)" width="100%" height="100%" xlink:href="#g4247"/>
    <use transform="matrix(.5 -.86603 .86603 .5 -533.75 -239.04)" width="100%" height="100%" xlink:href="#use4252"/>
    <use transform="matrix(.5 -.86603 .86603 .5 -533.75 -239.04)" width="100%" height="100%" xlink:href="#use4254"/>
    <use transform="matrix(.5 -.86603 .86603 .5 -533.75 -239.04)" width="100%" height="100%" xlink:href="#use4256"/>
    <use transform="matrix(.5 -.86603 .86603 .5 -533.75 -239.04)" width="100%" height="100%" xlink:href="#use4258"/>
    <circle cx="-472.93" cy="341.52" r="18.188" fill="none" stroke="#fff" stroke-linejoin="round" stroke-width="12.286"/>
   </g>
  </g>
 </g>
</svg>
