<?xml version="1.0" encoding="UTF-8"?>
<!-- Created with Inkscape (http://www.inkscape.org/) -->
<svg width="300" height="400" version="1.1" viewBox="0 0 300 400" xmlns="http://www.w3.org/2000/svg" xmlns:cc="http://creativecommons.org/ns#" xmlns:dc="http://purl.org/dc/elements/1.1/" xmlns:rdf="http://www.w3.org/1999/02/22-rdf-syntax-ns#">
 <metadata>
  <rdf:RDF>
   <cc:Work rdf:about="">
    <dc:format>image/svg+xml</dc:format>
    <dc:type rdf:resource="http://purl.org/dc/dcmitype/StillImage"/>
   </cc:Work>
  </rdf:RDF>
 </metadata>
 <g transform="translate(0 -652.36)">
  <g transform="translate(4.6994e-7 .021068)">
   <g transform="matrix(1.0227 0 0 1.0227 286.17 231.36)">
    <g>
     <circle cx="-205.98" cy="485.49" r="59.759"/>
     <circle cx="-205.98" cy="485.49" r="45.07" fill="#fff"/>
     <circle cx="-205.98" cy="485.49" r="38.811" fill="#000037"/>
    </g>
    <path transform="matrix(.99998 -.0068913 -.0068913 -.99998 0 0)" d="m-188.25-484.06a21.069 21.069 0 0 1-20.673 21.065 21.069 21.069 0 0 1-21.45-20.273 21.069 21.069 0 0 1 19.866-21.827 21.069 21.069 0 0 1 22.197 19.452" fill="none" stroke="#fff" stroke-dasharray="13.20077528, 13.20077528" stroke-linecap="round" stroke-linejoin="round" stroke-width="6.6004"/>
    <circle cx="-205.98" cy="485.49" r="7.8531" fill="#fff"/>
    <circle cx="-205.98" cy="485.49" r="3.5861" fill="#000037"/>
   </g>
   <g transform="matrix(1.0227 0 0 1.0227 360.65 355.77)">
    <g>
     <circle cx="-205.98" cy="485.49" r="59.759"/>
     <circle cx="-205.98" cy="485.49" r="45.07" fill="#fff"/>
     <circle cx="-205.98" cy="485.49" r="38.811" fill="#b93c3c"/>
    </g>
    <path transform="matrix(.99998 -.0068913 -.0068913 -.99998 0 0)" d="m-188.25-484.06a21.069 21.069 0 0 1-20.673 21.065 21.069 21.069 0 0 1-21.45-20.273 21.069 21.069 0 0 1 19.866-21.827 21.069 21.069 0 0 1 22.197 19.452" fill="none" stroke="#fff" stroke-dasharray="13.20077528, 13.20077528" stroke-linecap="round" stroke-linejoin="round" stroke-width="6.6004"/>
    <circle cx="-205.98" cy="485.49" r="7.8531" fill="#fff"/>
    <circle cx="-205.98" cy="485.49" r="3.5861" fill="#b93c3c"/>
   </g>
   <g transform="matrix(1.0227 0 0 1.0227 435.14 480.3)">
    <g>
     <circle cx="-205.98" cy="485.49" r="59.759"/>
     <circle cx="-205.98" cy="485.49" r="45.07" fill="#fff"/>
     <circle cx="-205.98" cy="485.49" r="38.811" fill="#000037"/>
    </g>
    <path transform="matrix(.99998 -.0068913 -.0068913 -.99998 0 0)" d="m-188.25-484.06a21.069 21.069 0 0 1-20.673 21.065 21.069 21.069 0 0 1-21.45-20.273 21.069 21.069 0 0 1 19.866-21.827 21.069 21.069 0 0 1 22.197 19.452" fill="none" stroke="#fff" stroke-dasharray="13.20077528, 13.20077528" stroke-linecap="round" stroke-linejoin="round" stroke-width="6.6004"/>
    <circle cx="-205.98" cy="485.49" r="7.8531" fill="#fff"/>
    <circle cx="-205.98" cy="485.49" r="3.5861" fill="#000037"/>
   </g>
  </g>
 </g>
</svg>
