<?xml version="1.0" encoding="UTF-8"?>
<!-- Created with Inkscape (http://www.inkscape.org/) -->
<svg width="300" height="400" version="1.1" viewBox="0 0 300 400" xmlns="http://www.w3.org/2000/svg" xmlns:cc="http://creativecommons.org/ns#" xmlns:dc="http://purl.org/dc/elements/1.1/" xmlns:rdf="http://www.w3.org/1999/02/22-rdf-syntax-ns#">
 <metadata>
  <rdf:RDF>
   <cc:Work rdf:about="">
    <dc:format>image/svg+xml</dc:format>
    <dc:type rdf:resource="http://purl.org/dc/dcmitype/StillImage"/>
   </cc:Work>
  </rdf:RDF>
 </metadata>
 <g transform="translate(0 -652.36)">
  <g transform="translate(-2.2925e-7 .0010341)">
   <g>
    <circle cx="97.786" cy="718.12" r="61.118"/>
    <circle cx="97.786" cy="808.12" r="61.118"/>
    <circle cx="97.786" cy="896.62" r="61.118"/>
    <circle cx="97.786" cy="986.62" r="61.118"/>
    <circle cx="202.21" cy="718.12" r="61.118"/>
    <circle cx="202.21" cy="808.12" r="61.118"/>
    <circle cx="202.21" cy="896.62" r="61.118"/>
    <circle cx="202.21" cy="986.62" r="61.118"/>
   </g>
   <circle cx="97.786" cy="718.12" r="46.095" fill="#fff"/>
   <circle cx="97.786" cy="718.12" r="39.693" fill="#000037"/>
   <path transform="matrix(.99998 -.0068913 -.0068913 -.99998 0 0)" d="m114.38-718.78a21.548 21.548 0 0 1-21.143 21.544 21.548 21.548 0 0 1-21.938-20.734 21.548 21.548 0 0 1 20.318-22.324 21.548 21.548 0 0 1 22.702 19.894" fill="none" stroke="#fff" stroke-dasharray="13.50089867, 13.50089867" stroke-linecap="round" stroke-linejoin="round" stroke-width="6.7504"/>
   <g>
    <circle cx="97.786" cy="718.12" r="8.0316" fill="#fff"/>
    <circle cx="97.786" cy="718.12" r="3.6676" fill="#000037"/>
    <circle cx="97.786" cy="808.12" r="46.095" fill="#fff"/>
    <circle cx="97.786" cy="808.12" r="39.693" fill="#000037"/>
   </g>
   <path transform="matrix(.99998 -.0068913 -.0068913 -.99998 0 0)" d="m113.76-808.78a21.548 21.548 0 0 1-21.143 21.544 21.548 21.548 0 0 1-21.938-20.734 21.548 21.548 0 0 1 20.318-22.324 21.548 21.548 0 0 1 22.702 19.894" fill="none" stroke="#fff" stroke-dasharray="13.50089867, 13.50089867" stroke-linecap="round" stroke-linejoin="round" stroke-width="6.7504"/>
   <g>
    <circle cx="97.786" cy="808.12" r="8.0316" fill="#fff"/>
    <circle cx="97.786" cy="808.12" r="3.6676" fill="#000037"/>
    <circle cx="97.786" cy="896.62" r="46.095" fill="#fff"/>
    <circle cx="97.786" cy="896.62" r="39.693" fill="#000037"/>
   </g>
   <path transform="matrix(.99998 -.0068913 -.0068913 -.99998 0 0)" d="m113.15-897.27a21.548 21.548 0 0 1-21.143 21.544 21.548 21.548 0 0 1-21.938-20.734 21.548 21.548 0 0 1 20.318-22.324 21.548 21.548 0 0 1 22.702 19.894" fill="none" stroke="#fff" stroke-dasharray="13.50089867, 13.50089867" stroke-linecap="round" stroke-linejoin="round" stroke-width="6.7504"/>
   <g>
    <circle cx="97.786" cy="896.62" r="8.0316" fill="#fff"/>
    <circle cx="97.786" cy="896.62" r="3.6676" fill="#000037"/>
    <circle cx="97.786" cy="986.62" r="46.095" fill="#fff"/>
    <circle cx="97.786" cy="986.62" r="39.693" fill="#000037"/>
   </g>
   <path transform="matrix(.99998 -.0068913 -.0068913 -.99998 0 0)" d="m112.53-987.27a21.548 21.548 0 0 1-21.143 21.544 21.548 21.548 0 0 1-21.938-20.734 21.548 21.548 0 0 1 20.318-22.323 21.548 21.548 0 0 1 22.702 19.894" fill="none" stroke="#fff" stroke-dasharray="13.50089867, 13.50089867" stroke-linecap="round" stroke-linejoin="round" stroke-width="6.7504"/>
   <g>
    <circle cx="97.786" cy="986.62" r="8.0316" fill="#fff"/>
    <circle cx="97.786" cy="986.62" r="3.6676" fill="#000037"/>
    <circle cx="202.21" cy="718.12" r="46.095" fill="#fff"/>
    <circle cx="202.21" cy="718.12" r="39.693" fill="#000037"/>
   </g>
   <path transform="matrix(.99998 -.0068913 -.0068913 -.99998 0 0)" d="m218.81-719.5a21.548 21.548 0 0 1-21.143 21.544 21.548 21.548 0 0 1-21.938-20.734 21.548 21.548 0 0 1 20.318-22.324 21.548 21.548 0 0 1 22.702 19.894" fill="none" stroke="#fff" stroke-dasharray="13.50089867, 13.50089867" stroke-linecap="round" stroke-linejoin="round" stroke-width="6.7504"/>
   <g>
    <circle cx="202.21" cy="718.12" r="8.0316" fill="#fff"/>
    <circle cx="202.21" cy="718.12" r="3.6676" fill="#000037"/>
    <circle cx="202.21" cy="808.12" r="46.095" fill="#fff"/>
    <circle cx="202.21" cy="808.12" r="39.693" fill="#000037"/>
   </g>
   <path transform="matrix(.99998 -.0068913 -.0068913 -.99998 0 0)" d="m218.19-809.5a21.548 21.548 0 0 1-21.143 21.544 21.548 21.548 0 0 1-21.938-20.734 21.548 21.548 0 0 1 20.318-22.324 21.548 21.548 0 0 1 22.702 19.894" fill="none" stroke="#fff" stroke-dasharray="13.50089867, 13.50089867" stroke-linecap="round" stroke-linejoin="round" stroke-width="6.7504"/>
   <g>
    <circle cx="202.21" cy="808.12" r="8.0316" fill="#fff"/>
    <circle cx="202.21" cy="808.12" r="3.6676" fill="#000037"/>
    <circle cx="202.21" cy="896.62" r="46.095" fill="#fff"/>
    <circle cx="202.21" cy="896.62" r="39.693" fill="#000037"/>
   </g>
   <path transform="matrix(.99998 -.0068913 -.0068913 -.99998 0 0)" d="m217.58-897.99a21.548 21.548 0 0 1-21.143 21.544 21.548 21.548 0 0 1-21.938-20.734 21.548 21.548 0 0 1 20.318-22.324 21.548 21.548 0 0 1 22.702 19.894" fill="none" stroke="#fff" stroke-dasharray="13.50089867, 13.50089867" stroke-linecap="round" stroke-linejoin="round" stroke-width="6.7504"/>
   <g>
    <circle cx="202.21" cy="896.62" r="8.0316" fill="#fff"/>
    <circle cx="202.21" cy="896.62" r="3.6676" fill="#000037"/>
    <circle cx="202.21" cy="986.62" r="46.095" fill="#fff"/>
    <circle cx="202.21" cy="986.62" r="39.693" fill="#000037"/>
   </g>
   <path transform="matrix(.99998 -.0068913 -.0068913 -.99998 0 0)" d="m216.96-987.99a21.548 21.548 0 0 1-21.143 21.544 21.548 21.548 0 0 1-21.938-20.734 21.548 21.548 0 0 1 20.318-22.324 21.548 21.548 0 0 1 22.702 19.894" fill="none" stroke="#fff" stroke-dasharray="13.50089867, 13.50089867" stroke-linecap="round" stroke-linejoin="round" stroke-width="6.7504"/>
   <circle cx="202.21" cy="986.62" r="8.0316" fill="#fff"/>
   <circle cx="202.21" cy="986.62" r="3.6676" fill="#000037"/>
  </g>
 </g>
</svg>
