<?xml version="1.0" encoding="UTF-8"?>
<!-- Created with Inkscape (http://www.inkscape.org/) -->
<svg width="300" height="400" version="1.1" viewBox="0 0 300 400" xmlns="http://www.w3.org/2000/svg" xmlns:cc="http://creativecommons.org/ns#" xmlns:dc="http://purl.org/dc/elements/1.1/" xmlns:rdf="http://www.w3.org/1999/02/22-rdf-syntax-ns#">
 <metadata>
  <rdf:RDF>
   <cc:Work rdf:about="">
    <dc:format>image/svg+xml</dc:format>
    <dc:type rdf:resource="http://purl.org/dc/dcmitype/StillImage"/>
   </cc:Work>
  </rdf:RDF>
 </metadata>
 <g transform="translate(0 -652.36)">
  <g transform="translate(1.1328e-8 .37391)">
   <g>
    <circle cx="237.42" cy="714.99" r="61.118"/>
    <circle cx="62.769" cy="714.99" r="61.118"/>
    <circle cx="150.1" cy="714.99" r="61.118"/>
   </g>
   <circle cx="150.1" cy="714.99" r="46.095" fill="#fff"/>
   <circle cx="150.1" cy="714.99" r="39.693" fill="#000037"/>
   <path transform="matrix(.99998 -.0068913 -.0068913 -.99998 0 0)" d="m166.71-716.01a21.548 21.548 0 0 1-21.143 21.544 21.548 21.548 0 0 1-21.938-20.734 21.548 21.548 0 0 1 20.318-22.324 21.548 21.548 0 0 1 22.702 19.894" fill="none" stroke="#fff" stroke-dasharray="13.50089867, 13.50089867" stroke-linecap="round" stroke-linejoin="round" stroke-width="6.7504"/>
   <g>
    <circle cx="150.1" cy="714.99" r="8.0316" fill="#fff"/>
    <circle cx="150.1" cy="714.99" r="3.6676" fill="#000037"/>
    <circle cx="62.769" cy="714.99" r="46.095" fill="#fff"/>
    <circle cx="62.769" cy="714.99" r="39.693" fill="#000037"/>
   </g>
   <path transform="matrix(.99998 -.0068913 -.0068913 -.99998 0 0)" d="m79.389-715.4a21.548 21.548 0 0 1-21.143 21.544 21.548 21.548 0 0 1-21.938-20.734 21.548 21.548 0 0 1 20.318-22.324 21.548 21.548 0 0 1 22.702 19.894" fill="none" stroke="#fff" stroke-dasharray="13.50089867, 13.50089867" stroke-linecap="round" stroke-linejoin="round" stroke-width="6.7504"/>
   <g>
    <circle cx="62.769" cy="714.99" r="8.0316" fill="#fff"/>
    <circle cx="62.769" cy="714.99" r="3.6676" fill="#000037"/>
    <circle cx="237.42" cy="714.99" r="46.095" fill="#fff"/>
    <circle cx="237.42" cy="714.99" r="39.693" fill="#000037"/>
   </g>
   <path transform="matrix(.99998 -.0068913 -.0068913 -.99998 0 0)" d="m254.04-716.61a21.548 21.548 0 0 1-21.143 21.544 21.548 21.548 0 0 1-21.938-20.734 21.548 21.548 0 0 1 20.318-22.324 21.548 21.548 0 0 1 22.702 19.894" fill="none" stroke="#fff" stroke-dasharray="13.50089867, 13.50089867" stroke-linecap="round" stroke-linejoin="round" stroke-width="6.7504"/>
   <circle cx="237.42" cy="714.99" r="8.0316" fill="#fff"/>
   <circle cx="237.42" cy="714.99" r="3.6676" fill="#000037"/>
   <g transform="translate(0,274)">
    <g>
     <circle cx="237.42" cy="714.99" r="61.118"/>
     <circle cx="62.769" cy="714.99" r="61.118"/>
     <circle cx="150.1" cy="714.99" r="61.118"/>
    </g>
    <circle cx="150.1" cy="714.99" r="46.095" fill="#fff"/>
    <circle cx="150.1" cy="714.99" r="39.693" fill="#000037"/>
    <path transform="matrix(.99998 -.0068913 -.0068913 -.99998 0 0)" d="m166.71-716.01a21.548 21.548 0 0 1-21.143 21.544 21.548 21.548 0 0 1-21.938-20.734 21.548 21.548 0 0 1 20.318-22.324 21.548 21.548 0 0 1 22.702 19.894" fill="none" stroke="#fff" stroke-dasharray="13.50089867, 13.50089867" stroke-linecap="round" stroke-linejoin="round" stroke-width="6.7504"/>
    <g>
     <circle cx="150.1" cy="714.99" r="8.0316" fill="#fff"/>
     <circle cx="150.1" cy="714.99" r="3.6676" fill="#000037"/>
     <circle cx="62.769" cy="714.99" r="46.095" fill="#fff"/>
     <circle cx="62.769" cy="714.99" r="39.693" fill="#000037"/>
    </g>
    <path transform="matrix(.99998 -.0068913 -.0068913 -.99998 0 0)" d="m79.389-715.4a21.548 21.548 0 0 1-21.143 21.544 21.548 21.548 0 0 1-21.938-20.734 21.548 21.548 0 0 1 20.318-22.324 21.548 21.548 0 0 1 22.702 19.894" fill="none" stroke="#fff" stroke-dasharray="13.50089867, 13.50089867" stroke-linecap="round" stroke-linejoin="round" stroke-width="6.7504"/>
    <g>
     <circle cx="62.769" cy="714.99" r="8.0316" fill="#fff"/>
     <circle cx="62.769" cy="714.99" r="3.6676" fill="#000037"/>
     <circle cx="237.42" cy="714.99" r="46.095" fill="#fff"/>
     <circle cx="237.42" cy="714.99" r="39.693" fill="#000037"/>
    </g>
    <path transform="matrix(.99998 -.0068913 -.0068913 -.99998 0 0)" d="m254.04-716.61a21.548 21.548 0 0 1-21.143 21.544 21.548 21.548 0 0 1-21.938-20.734 21.548 21.548 0 0 1 20.318-22.324 21.548 21.548 0 0 1 22.702 19.894" fill="none" stroke="#fff" stroke-dasharray="13.50089867, 13.50089867" stroke-linecap="round" stroke-linejoin="round" stroke-width="6.7504"/>
    <circle cx="237.42" cy="714.99" r="8.0316" fill="#fff"/>
    <circle cx="237.42" cy="714.99" r="3.6676" fill="#000037"/>
   </g>
   <g>
    <circle cx="63.029" cy="852.4" r="61.118"/>
    <circle cx="237.68" cy="852.4" r="61.118"/>
    <circle cx="150" cy="852.4" r="61.118"/>
   </g>
   <circle cx="150" cy="852.4" r="46.095" fill="#fff"/>
   <circle cx="150" cy="852.4" r="39.693" fill="#b93c3c"/>
   <path transform="matrix(.99998 -.0068913 -.0068913 -.99998 0 0)" d="m165.67-853.41a21.548 21.548 0 0 1-21.143 21.544 21.548 21.548 0 0 1-21.938-20.734 21.548 21.548 0 0 1 20.318-22.324 21.548 21.548 0 0 1 22.702 19.894" fill="none" stroke="#fff" stroke-dasharray="13.50089867, 13.50089867" stroke-linecap="round" stroke-linejoin="round" stroke-width="6.7504"/>
   <g>
    <circle cx="150" cy="852.4" r="8.0316" fill="#fff"/>
    <circle cx="150" cy="852.4" r="3.6676" fill="#b93c3c"/>
    <circle cx="63.029" cy="852.4" r="46.095" fill="#fff"/>
    <circle cx="63.029" cy="852.4" r="39.693" fill="#b93c3c"/>
   </g>
   <path transform="matrix(.99998 -.0068913 -.0068913 -.99998 0 0)" d="m78.702-852.81a21.548 21.548 0 0 1-21.143 21.544 21.548 21.548 0 0 1-21.938-20.734 21.548 21.548 0 0 1 20.318-22.324 21.548 21.548 0 0 1 22.702 19.894" fill="none" stroke="#fff" stroke-dasharray="13.50089867, 13.50089867" stroke-linecap="round" stroke-linejoin="round" stroke-width="6.7504"/>
   <g>
    <circle cx="63.029" cy="852.4" r="8.0316" fill="#fff"/>
    <circle cx="63.029" cy="852.4" r="3.6676" fill="#b93c3c"/>
    <circle cx="237.68" cy="852.4" r="46.095" fill="#fff"/>
    <circle cx="237.68" cy="852.4" r="39.693" fill="#b93c3c"/>
   </g>
   <path transform="matrix(.99998 -.0068913 -.0068913 -.99998 0 0)" d="m253.35-854.02a21.548 21.548 0 0 1-21.143 21.544 21.548 21.548 0 0 1-21.938-20.734 21.548 21.548 0 0 1 20.318-22.324 21.548 21.548 0 0 1 22.702 19.894" fill="none" stroke="#fff" stroke-dasharray="13.50089867, 13.50089867" stroke-linecap="round" stroke-linejoin="round" stroke-width="6.7504"/>
   <circle cx="237.68" cy="852.4" r="8.0316" fill="#fff"/>
   <circle cx="237.68" cy="852.4" r="3.6676" fill="#b93c3c"/>
  </g>
 </g>
</svg>
