<?xml version="1.0" encoding="UTF-8"?>
<!-- Created with Inkscape (http://www.inkscape.org/) -->
<svg width="300" height="400" version="1.1" viewBox="0 0 300 400" xmlns="http://www.w3.org/2000/svg" xmlns:cc="http://creativecommons.org/ns#" xmlns:dc="http://purl.org/dc/elements/1.1/" xmlns:rdf="http://www.w3.org/1999/02/22-rdf-syntax-ns#" xmlns:xlink="http://www.w3.org/1999/xlink">
 <metadata>
  <rdf:RDF>
   <cc:Work rdf:about="">
    <dc:format>image/svg+xml</dc:format>
    <dc:type rdf:resource="http://purl.org/dc/dcmitype/StillImage"/>
   </cc:Work>
  </rdf:RDF>
 </metadata>
 <g transform="translate(0 -652.36)">
  <g transform="matrix(.4669 0 0 .49874 -17.749 624.09)">
   <use transform="matrix(.97502 -.21583 .22384 .97607 -18.206 79.986)" width="100%" height="100%" xlink:href="#path8025"/>
   <path id="path8025" d="m293.04 673.85-6.4807 58.538c-18.403-0.94174-31.307-7.6303-43.64-11.54 7.7001 14.943 21.571 24.32 38.774 33.551l-6.4234 41.36c-27.111-4.6737-31.471-5.4204-52.556-8.4615 18.844 7.4293 25.513 11.406 38.505 17.71-22.8 3.8032-29.597 5.0839-60.793 12.182 32.162-1.206 43.32 0.48929 68.436-0.40456-10.851 7.9916-21.694 10.385-31.456 24.617 25.977-5.2727 46.718-16.754 60.162-23.199 12.408-1.6986 21.107-4.151 38.942-7.1463-7.7303-4.8784-21.381-8.3099-35.604-11.696l5.4436-43.436c25.696-4.2122 43.571-16.889 56.431-21.38-19.789 3.6307-31.82 1.8495-52.445-0.30165l6.7758-59.519z" fill="#b93c3c" fill-rule="evenodd"/>
   <g fill-rule="evenodd">
    <path d="m205.68 526.53c-27.326-13.071-34.654-22.28-43.304-31.744-17.86-19.097-35.065-29.803-55.835-43.121 17.838 15.233 33.406 27.664 48.752 54.205l-49.475-9.2505c36.118 12.494 63.512 28.866 81.975 46.795z"/>
    <path d="m539.92 586.55c41.6-19.489 77.213-43.331 130.07-56.41-59.049 22.31-91.228 43.256-120.17 73.559-3.1192 6.3878 0.4958 12.776 1.6533 19.163l-29.021-49.974c6.8565 7.1826 12.157 15.928 17.471 13.662z" stroke="#000" stroke-width=".9178px"/>
    <path d="m497.25 523.93c12.092 17.887 78.176-38.98 112.69-61.321l-64.011 52.288 62.354-36.46c-36.539 28.587-79.532 47.527-93.761 77.899z" stroke="#000" stroke-width=".64344px"/>
   </g>
   <path d="m240.7 192.27c-5.6795 0.86388-9.1821-0.21119-11.539-2.0401-3.2173-2.1777-5.5466-4.7466-7.632-7.3867-5.2368-6.5968-9.5952-13.516-15.626-19.889h-1e-5c-1.1738-1.2776-2.4036-2.5306-3.7035-3.7459-3.2674 7.7318-5.987 15.869-6.3996 23.713-0.4028 7.7044 1.7193 15.096 6.6695 19.797 0.14605-0.17923 0.90733-0.56984 1.87-1.1525 1.5459-0.84873 4.2035-1.3615 7.6605-2.0458 3.0349-0.52764 6.9433-0.87578 11.654-1.5373 1.8648-0.23202 4.269-0.64586 7.1764-1.3694 2.0815-0.29227 5.4314-1.6644 9.8696-4.3442zm-38.231 10.449c-1.2149-1.0013-2.5189-1.8734-3.904-2.5829-14.357-0.67905-27.99-3.0628-41.826-5.2216 4.0287 8.9113 7.9197 17.993 12.153 26.786 2.5218 5.1867 5.2473 10.204 8.524 14.562 1.0404-1.5987 2.3262-3.3565 3.7637-5.318 6.4191-8.5238 14.007-17.542 21.301-28.131l1e-5 -1e-5c-0.0458-0.0181-0.0474-0.0496-0.0112-0.094zm-25.053 33.543c-3.094-0.59531-6.2028-1.0761-9.359-1.3188-7.327-0.64983-15.217 0.0851-22.777 4.0234-4.4261 2.3429-8.6331 5.6504-12.424 9.6104 3.6947 2.7148 7.6002 4.7493 11.55 6.2297 11.555 4.2042 23.052 4.1084 34.138 3.3492-1.9486-3.9668-3.5052-7.3429-4.0407-10.177-0.36296-1.9468-0.56332-3.5635-0.30521-4.5756 0.0489-0.99763 0.70519-2.4911 1.608-4.3805 0.43096-0.86769 0.97478-1.7846 1.6101-2.7609zm1.1278 21.894-2e-3 2e-3c-9.6401 14.405-16.653 26.379-21.998 34.708 15.428 0.85486 29.683 4.3234 43.176 11.684-8.4599-15.655-16.127-30.8-21.176-46.393l-5e-4 -1e-3zm21.176 46.394c-1.969 3.2456-3.75 5.8928-5.4005 7.8689-9.4414 1.9377-19.121 2.4914-28.958 1.7567 3.4761 6.555 8.1067 17.364 13.728 31.973 7.7428-11.58 16.469-22.316 25.852-32.02-1.7626-3.2194-3.5078-6.4098-5.2206-9.5794zm-20.631 41.599c-5.4255-0.0316-10.884-0.4875-16.359-1.3489-9.898-2.0864-20.257-3.2725-31.053-2.8719 2.2871 4.9133 4.8288 9.6202 7.6506 14.045 5.6959 8.9547 12.639 16.845 20.73 22.167 0.80986-2.9126 2.156-6.0234 3.7853-9.2708 2.5638-4.9561 6.0559-9.8062 10.072-14.612 1.6702-2.7459 3.3963-5.4495 5.1742-8.1086zm-19.031 31.991c-3.7649 0.27514-7.5358 0.89393-11.272 1.947-10.75 2.9275-21.374 9.8952-28.761 21.385 1.6802 0.73292 3.3705 1.3802 5.0646 1.9383 14.962 4.723 29.151 1.9561 40.749-3.8864-2.8107-2.9047-4.9985-5.8018-5.758-8.5138-1.0203-2.5423-1.1718-5.9279-0.73381-9.3659 0.13364-1.1315 0.37671-2.3011 0.71135-3.5046zm5.7805 21.384c-0.72956 1.499-1.3926 3.0509-1.9889 4.6447-4.5051 12.575-4.9728 27.127-3.3115 41.835 6.162-3.6059 11.856-7.6807 17.202-11.976 6.8626-5.5061 13.155-11.41 19.003-17.603-3.3869-1.1495-6.6855-2.406-9.8811-3.7943-7.9316-3.5462-14.96-7.2264-19.849-11.927v-1e-5c-0.40174-0.39343-0.79405-0.78716-1.1749-1.1808zm30.905 16.902c2.0815 15.256 6.2897 30.739 11.607 46.076 3.6539-4.0912 7.1643-8.2527 10.561-12.459 6.3552-8.0431 12.558-16.153 18.586-24.33-4.5483-0.70407-9.0959-1.4476-13.642-2.2268-9.4412-1.9368-18.558-4.157-27.111-7.06zm40.754 9.2869c5.2046 14.762 10.853 29.488 17.032 44.149 9.2319-12.749 18.022-25.668 26.291-38.76-14.438-1.3175-28.884-3.1547-43.323-5.3897zm43.323 5.3897c4.6687 10.904 9.6553 21.761 14.998 32.558 1.7155 3.4693 3.4649 6.9308 5.2467 10.384 8.2323-13.381 15.937-26.927 23.201-40.6-8.861-0.15069-17.694-0.48691-26.49-1.041-5.6501-0.34917-11.302-0.78535-16.956-1.3012zm43.446 2.3422c7.2993 13.92 15.11 27.717 23.322 41.385 4.2982-8.2657 8.4521-16.567 12.48-24.896 2.7536-5.6901 5.4568-11.392 8.1235-17.102-2.8921 0.11644-5.779 0.22167-8.6608 0.31326-11.792 0.37436-23.553 0.49928-35.265 0.30012zm43.925-0.61338c8.1957 13.476 16.699 26.861 25.276 40.212 6.5526-14.171 12.963-28.364 19.44-42.551-15.049 0.85791-29.95 1.7447-44.716 2.3392zm44.716-2.3392c3.61 5.6129 7.2212 11.227 10.816 16.847 4.9354 7.7264 9.887 15.463 14.843 23.213 6.4824-14.135 12.938-28.235 19.419-42.291-11.768 0.45857-23.508 1.0308-35.22 1.6768-3.2934 0.18087-6.5795 0.36643-9.8586 0.55336zm45.078-2.2301c8.5644 13.469 17.124 26.986 25.616 40.562 5.312-11.425 10.655-22.812 16.059-34.157 1.1283-2.6076 2.2216-5.2201 3.2757-7.8362-1.2121 0.12328-2.4282 0.24096-3.648 0.35372-13.804 0.16192-27.572 0.54221-41.303 1.0773zm44.951-1.431c8.0469 13.031 17.104 25.801 27.856 37.807 5.6333-15.039 9.7631-30.192 11.681-45.259-12.329 3.8977-25.671 6.0417-39.537 7.4521zm39.537-7.4521c0.53934 0.57862 1.0836 1.1546 1.633 1.7277 10.141 10.424 21.684 20.31 35.845 27.461 0.763-9.6821 0.45532-19.16-1.3231-28.093-1.2493-6.1912-3.273-12.08-6.0693-17.319-1.3003 1.3307-2.7536 2.6352-4.301 3.903-6.3902 5.1765-15.126 8.7882-24.795 12.003-0.32902 0.10702-0.65878 0.21276-0.98926 0.31724zm30.086-16.224c9.5725 4.326 20.629 6.3581 32.414 4.1166 4.6814-0.91847 9.4012-2.4968 14.034-4.6773-7.7513-10.006-17.779-16.653-28.112-20.082-3.874-1.3127-7.8-2.2163-11.738-2.7746 0.2466 1.2648 0.41343 2.5056 0.48842 3.7173h-1e-5c0.30054 4.3689-0.21501 8.6965-1.7843 12.033-0.97575 2.6004-2.8717 5.1792-5.3024 7.6667zm6.5983-23.417c9.3393-5.6225 17.453-14.393 23.98-24.586 2.2605-3.5171 4.3481-7.2174 6.2639-11.07-13.921-0.96217-27.275 0.64671-39.753 3.9002-2.197 0.57391-4.3669 1.2022-6.5072 1.8839 0.58201 0.67026 1.1551 1.3493 1.7189 2.0365 4.2122 5.1931 7.8052 10.63 10.392 16.253 1.7824 3.9833 3.1845 7.8856 3.9052 11.582zm-16.017-29.872c5.5947-12.401 9.3326-26.163 10.649-40.848 0.29459-1.2574 0.58903-2.4086 0.87882-3.4533-12.412 8.6304-26.189 11.08-39.043 7.9422-0.62978-0.68398-1.3024-1.451-2.0185-2.299-0.31194 1.0563-0.62851 2.1126-0.94935 3.1692 6.0118 6.9571 12.07 15.076 18.222 23.774 4.4158 3.4664 8.5224 7.4105 12.26 11.715zm-29.533-38.658c11.536-11.352 25.684-16.46 42.489-16.835-2.1062-2.3766-4.5141-5.221-7.2365-8.5023-6.7868-8.8405-14.434-16.811-22.932-22.829-0.93527 3.6766-2.3019 7.4905-3.9162 11.408-1.8038 12.321-4.7938 24.532-8.4046 36.759zm12.321-48.167c5.7142-0.87619 11.414-2.2882 17.027-4.4268 8.9254-3.3842 17.655-8.7044 25.128-16.514-3.3923-1.8688-6.8512-3.4495-10.342-4.7039-12.04-4.313-24.315-4.4309-35.03-1.2815 1.8082 2.7506 3.168 5.77 3.868 8.7807v1e-5c0.90651 3.4474 0.96759 7.5269 0.51409 11.818-0.2146 2.0571-0.61504 4.1684-1.1642 6.327zm-3.2179-26.926s0.0259-0.0329 0.0259-0.0329c9.0707-11.647 12.77-27.813 13.199-44.677-6.5571 2.4915-12.689 5.5895-18.438 9.0036-7.632 4.8753-15.482 8.182-23.941 9.5829 4.1101 3.5233 8.0297 7.0937 11.713 10.788h1e-5c7.5534 4.8181 14.062 9.6977 17.433 15.324l7e-3 0.0109zm-29.153-26.123c-0.0747-11.095 0.22363-18.698 2.0512-22.385 3.3995-2.653 6.961-5.0453 10.678-7.2089-5.8586-2.4345-14.394-8.6206-25.834-17.099-0.81236 10.59-2.5612 21.363-4.7023 32.311 6.2139 4.8361 12.189 9.5647 17.808 14.381zm-13.105-46.693c8.2506-5.5444 17.28-9.9557 26.995-13.686 5.21-2.2955 10.392-5.0464 15.357-8.4286-13.216-9.3553-27.92-15.597-42.035-14.566-0.44094 0.0348-0.88024 0.0766-1.3177 0.12528 0.0413 0.10462 0.082 0.20981 0.12209 0.31553 2.1049 4.7228 1.9566 11.576 1.2905 19.277 0.19158 5.5997 0.0258 11.254-0.41208 16.963zm-1.0005-36.555c5.449-4.1112 10.115-9.7085 13.137-16.576 3.0526-6.9346 4.3972-15.143 3.7891-23.751v-2e-6c-0.0544-0.7412-0.12167-1.4851-0.20155-2.2313-16.824 5.3588-28.075 16.976-35.692 29.437 5.2364 1.1467 9.8056 2.6167 12.722 4.9706 1.4592 1.0644 2.7497 2.2812 3.7212 3.5762 0.99405 1.2579 1.8386 2.8373 2.524 4.5742zm-18.968-13.121c-0.10139-0.53978-0.20982-1.0799-0.3251-1.6201-3.1326-14.126-10.708-27.912-20.404-40.58-1.4606 2.7597-2.8125 5.5439-4.0688 8.3419-5.2927 11.743-8.9719 23.739-11.366 35.743 4.9182-1.148 9.8388-1.9956 14.73-2.4797 7.4446-0.68286 14.514-0.74736 20.84 0.46626 0.19868 0.0422 0.39646 0.0849 0.5933 0.12798zm-36.163 1.8854c-4.6537-5.7445-9.7963-11.255-15.332-16.503-5.946-5.6377-12.35-10.983-19.212-15.958-1.9829 12.163-2.8199 24.234-2.4375 36.003-0.40303 3.5175-1.1421 6.9599-2.2012 10.309 2.2061-0.61163 4.4369-1.2101 6.6886-1.7976 7.2932-3.8523 15.045-7.0074 23.063-9.4977 3.137-0.96408 6.2833-1.8217 9.4305-2.5563zm-39.182 13.852c-13.729-8.1372-21.38-14.302-23.543-16.945-0.1682-1.4422-0.30403-2.8899-0.40982-4.3437-3.7451 3.3196-12.317 7.2206-23.413 13.181 7.0535 4.8569 14.035 10.599 21.186 16.651 8.1202-3.1861 16.934-5.9808 26.18-8.5442zm-47.366-8.1071c-2.2174-15.129-1.8596-30.833-2.0079-47.775-0.17548 0.10988-0.3513 0.22034-0.52748 0.33138v2e-6c-11.204 5.5921-20.827 13.653-25.761 23.437v2e-6c-1.61 3.2133-2.7266 6.5786-3.3492 9.9828 0.75053-0.0298 1.4931-2e-3 2.2086 0.0859 2.2847 0.1505 5.0415 1.2126 8.051 2.6796 7.3554 2.5131 14.406 6.452 21.386 11.258zm-31.645-14.024c-1.449-5.1927-4.2189-10.179-8.1399-14.5-6.4448-7.0832-15.666-12.123-26.005-15.522-0.3317 12.156 2.6291 23.481 6.5638 33.693 1.5356 3.973 3.254 7.8224 5.1208 11.569 1.0736-1.2753 2.1694-2.5018 3.2918-3.6743 5.7455-5.5347 10.843-10.139 15.441-10.954 1.2052-0.35266 2.4774-0.5614 3.7277-0.61103zm-22.46 15.24c-14.678-3.9598-30.772-5.1066-46.965-5.116 2.11 3.8598 4.3087 7.6338 6.5627 11.342 5.9912 9.5142 11.926 19.114 16.989 29.525 3.259-4.8999 6.1659-9.742 8.8687-14.41 4.675-7.8621 9.3514-15.173 14.545-21.342zm-23.414 35.752c-6.5403-0.14274-13.034-0.51302-19.382-1.2999-9.4903-1.1583-18.884-3.2758-25.483-8.8109-1e-5 -1e-5 0.0273 0.0575 0.0272 0.0575h1e-5c3.1593 5.6526 3.4102 12.689 3.2095 19.78-0.30109 8.4644-0.3383 16.924 1.6133 24.628 2.1065-1.4108 4.8944-2.7919 8.1843-4.4142 3.3705-1.5467 7.505-3.8128 12.104-7.1768 5.8573-4.6602 10.245-9.5205 13.521-14.003 2.2132-2.9242 4.2714-5.8526 6.2056-8.7606z" fill="#004900" fill-rule="evenodd"/>
   <path d="m86.23 705.13c27.141-299.7 457.43-250.69 458.17-253.34l-49.41 62.904s70.699 175.96 147.2 186.58c44.361 6.1617-117.17-14.07-276.18-14.466-131.2-0.3271-264.51 18.828-279.77 18.319z" fill-rule="evenodd" stroke="#000" stroke-width="1.9934"/>
   <g fill="#fff">
    <path d="m202.86 575.4a25.183 16.606 0 0 1-9.0948 22.669 25.183 16.606 0 0 1-34.405-5.9294 25.183 16.606 0 0 1 8.8891-22.705 25.183 16.606 0 0 1 34.458 5.7936"/>
    <path d="m246.95 537.54a25.183 16.606 0 0 1-9.0948 22.669 25.183 16.606 0 0 1-34.405-5.9294 25.183 16.606 0 0 1 8.8891-22.705 25.183 16.606 0 0 1 34.458 5.7936"/>
    <path d="m275.35 578.31a25.183 16.606 0 0 1-9.0948 22.669 25.183 16.606 0 0 1-34.405-5.9294 25.183 16.606 0 0 1 8.8891-22.705 25.183 16.606 0 0 1 34.458 5.7936"/>
    <path d="m238.43 615.85a25.183 16.606 0 0 1-9.0948 22.669 25.183 16.606 0 0 1-34.405-5.9294 25.183 16.606 0 0 1 8.8891-22.705 25.183 16.606 0 0 1 34.458 5.7936"/>
    <path d="m168.7 615.26a25.183 16.606 0 0 1-9.0948 22.669 25.183 16.606 0 0 1-34.405-5.9294 25.183 16.606 0 0 1 8.8891-22.705 25.183 16.606 0 0 1 34.458 5.7936"/>
    <path d="m211.54 659.07a25.183 16.606 0 0 1-9.0947 22.669 25.183 16.606 0 0 1-34.405-5.9294 25.183 16.606 0 0 1 8.8891-22.705 25.183 16.606 0 0 1 34.458 5.7936"/>
    <path d="m151.53 657.34a25.183 16.606 0 0 1-9.0948 22.669 25.183 16.606 0 0 1-34.405-5.9294 25.183 16.606 0 0 1 8.8891-22.705 25.183 16.606 0 0 1 34.458 5.7936"/>
    <path d="m451.65 589.67a25.183 16.606 0 0 1-9.0948 22.669 25.183 16.606 0 0 1-34.405-5.9294 25.183 16.606 0 0 1 8.8891-22.705 25.183 16.606 0 0 1 34.458 5.7936"/>
    <path d="m476.06 624.9a25.183 16.606 0 0 1-9.0948 22.669 25.183 16.606 0 0 1-34.405-5.9294 25.183 16.606 0 0 1 8.8891-22.705 25.183 16.606 0 0 1 34.458 5.7936"/>
    <path d="m506.58 664.42a25.183 16.606 0 0 1-9.0947 22.669 25.183 16.606 0 0 1-34.405-5.9294 25.183 16.606 0 0 1 8.8891-22.705 25.183 16.606 0 0 1 34.458 5.7936"/>
    <path d="m515.92 588.09a25.183 16.606 0 0 1-9.0947 22.669 25.183 16.606 0 0 1-34.405-5.9294 25.183 16.606 0 0 1 8.8891-22.705 25.183 16.606 0 0 1 34.458 5.7936"/>
    <path d="m541.25 626.84a25.183 16.606 0 0 1-9.0948 22.669 25.183 16.606 0 0 1-34.405-5.9294 25.183 16.606 0 0 1 8.8891-22.705 25.183 16.606 0 0 1 34.458 5.7936"/>
    <path d="m569.76 662.06a25.183 16.606 0 0 1-9.0948 22.669 25.183 16.606 0 0 1-34.405-5.9294 25.183 16.606 0 0 1 8.8891-22.705 25.183 16.606 0 0 1 34.458 5.7936"/>
    <path d="m496.81 546.96a25.183 16.606 0 0 1-9.0948 22.669 25.183 16.606 0 0 1-34.405-5.9294 25.183 16.606 0 0 1 8.8891-22.705 25.183 16.606 0 0 1 34.458 5.7936"/>
    <path d="m436.46 545.15a25.183 16.606 0 0 1-9.0947 22.669 25.183 16.606 0 0 1-34.405-5.9294 25.183 16.606 0 0 1 8.8891-22.705 25.183 16.606 0 0 1 34.458 5.7936"/>
    <path d="m473.3 505.04a25.183 16.606 0 0 1-9.0948 22.669 25.183 16.606 0 0 1-34.405-5.9294 25.183 16.606 0 0 1 8.8891-22.705 25.183 16.606 0 0 1 34.458 5.7936"/>
    <path d="m440.33 464.96a25.183 16.606 0 0 1-9.0948 22.669 25.183 16.606 0 0 1-34.405-5.9294 25.183 16.606 0 0 1 8.8891-22.705 25.183 16.606 0 0 1 34.458 5.7936"/>
    <path d="m503.85 467.08a25.183 16.606 0 0 1-9.0948 22.669 25.183 16.606 0 0 1-34.405-5.9294 25.183 16.606 0 0 1 8.8891-22.705 25.183 16.606 0 0 1 34.458 5.7936"/>
   </g>
   <g>
    <path d="m272.89 475.19c-23.29-1.4502-52.549-5.0354-66.379-8.1336-23.801-5.3318-39.509-13.128-49.651-24.644-7.6802-8.7202-10.404-16.145-10.427-28.431-0.0405-20.878 11.869-46.581 32.612-70.38 2.2921-2.6298 5.269-7.2122 6.6155-10.183 1.3464-2.9708 4.5632-9.4126 7.1483-14.315l4.7002-8.9136-12.415-14.2c-13.198-15.095-18.154-21.62-24.332-32.041-2.1157-3.5683-5.0776-8.3126-6.5822-10.543-3.3399-4.9508-2.4344-9.4896-2.4132-14.064 0.0431-9.3069 7.5959-20.256 24.587-33.588 7.625-5.9825 8.916-9.2548 31.466-10.291 9.6285-0.44259 18.804-1.2223 20.389-1.7327 7.204-2.3189 16.643-9.4717 22.408-16.981 3.4112-4.443 5.4181-8.0332 13.59-24.311 12.254-24.411 24.419-43.449 34.598-54.146 13.417-14.1 22.928-17.626 34.141-12.658 12.476 5.5268 23.265 13.499 36.976 27.323l6.9446 7.0015 6.3881-2.4492c3.5134-1.3471 10.604-3.6949 15.757-5.2173s14.071-4.5949 19.819-6.8277c34.556-13.425 70.305-12.414 85.271 2.4097 3.6614 3.6268 6.5602 9.7713 7.2504 15.369 0.85677 6.9482-0.86619 35.397-2.8242 46.632-3.0936 17.751-3.5193 15.419 3.9013 21.368 3.5319 2.8316 10.469 9.0357 15.416 13.787s11.002 10.258 13.455 12.238c6.1574 4.9692 12.412 12.722 15.043 18.646 4.5944 10.346 4.769 19.59 0.63286 33.501-1.3607 4.5767-3.3672 12.518-4.4589 17.648-1.0916 5.1295-3.34 13.911-4.9963 19.515l-3.0115 10.189 5.3464 6.4363c2.9406 3.54 7.2735 9.0466 9.6288 12.237 2.3553 3.1904 6.4898 7.6479 9.1879 9.9056 18.858 15.78 30.14 37.737 27.683 53.876-1.1963 7.8591-4.0021 13.584-10.365 21.148-13.29 15.799-37.772 29.795-70.588 40.354-7.2894 2.3455-8.348 2.4618-28.828 3.1668-30.652 1.0551-38.505 1.6072-96.933 6.8146-17.441 1.5544-37.224 3.2085-43.962 3.6757-17.268 1.1973-59.087 1.662-72.79 0.80873z" fill="#004900"/>
    <path d="m252.28 375.37c-19.342 2.5879-54.338-16.753-57.163-15.571-1.3499 0.56474 43.655 21.608 39.923 22.51-17.524 4.2379-36.727 5.0192-54.682 7.0618l67 4-68 16c23.166-0.68722 51.346-7.4205 69.75-2.75-2.5954-9.502 0.19297-22.678 3.172-31.251z" fill="#fff" fill-rule="evenodd" stroke="#fff" stroke-linejoin="round" stroke-width="4.9464"/>
    <path d="m309.66 440.69-106.31-38.309 48.758 37.236-57.768-9.4752 84.384 53.223z" fill="#b93c3c" fill-rule="evenodd"/>
   </g>
   <g transform="matrix(.8878 0 0 .8878 29.358 -235.5)" fill="#004900" stroke="#fff" stroke-linecap="round" stroke-linejoin="round" stroke-width="20.336">
    <path transform="matrix(.61897 -.78542 .78542 .61897 0 0)" d="m-147.75 567.81a24.924 24.924 0 0 1-15.228 23.358 24.924 24.924 0 0 1-27.359-5.3806 24.924 24.924 0 0 1-5.2484-27.385 24.924 24.924 0 0 1 23.431-15.115"/>
    <path transform="matrix(.78874 -.61473 .61473 .78874 0 0)" d="m65.342 652.41a24.924 24.924 0 0 1-15.228 23.358 24.924 24.924 0 0 1-27.359-5.3806 24.924 24.924 0 0 1-5.2484-27.385 24.924 24.924 0 0 1 23.431-15.115"/>
    <path transform="matrix(.71491 -.69922 .69922 .71491 0 0)" d="m-94.167 671.86a24.924 24.924 0 0 1-15.228 23.358 24.924 24.924 0 0 1-27.359-5.3806 24.924 24.924 0 0 1-5.2484-27.385 24.924 24.924 0 0 1 23.431-15.115"/>
    <path transform="matrix(.40677 -.91353 .91353 .40677 0 0)" d="m-371.41 493.37a24.924 24.924 0 0 1-15.228 23.358 24.924 24.924 0 0 1-27.359-5.3806 24.924 24.924 0 0 1-5.2484-27.385 24.924 24.924 0 0 1 23.431-15.115"/>
    <path transform="matrix(.88801 -.45982 .45982 .88801 0 0)" d="m192.16 720.08a24.924 24.924 0 0 1-15.228 23.358 24.924 24.924 0 0 1-27.359-5.3806 24.924 24.924 0 0 1-5.2484-27.385 24.924 24.924 0 0 1 23.431-15.115"/>
    <path transform="matrix(.40677 -.91353 .91353 .40677 0 0)" d="m-418.74 566.54a24.924 24.924 0 0 1-15.228 23.358 24.924 24.924 0 0 1-27.359-5.3806 24.924 24.924 0 0 1-5.2484-27.385 24.924 24.924 0 0 1 23.431-15.115"/>
    <path transform="matrix(.88801 -.45982 .45982 .88801 0 0)" d="m112.88 760.11a24.924 24.924 0 0 1-15.228 23.358 24.924 24.924 0 0 1-27.359-5.3806 24.924 24.924 0 0 1-5.2484-27.385 24.924 24.924 0 0 1 23.431-15.115"/>
    <path transform="matrix(.71491 -.69922 .69922 .71491 0 0)" d="m-198.85 778.23a24.924 24.924 0 0 1-15.228 23.358 24.924 24.924 0 0 1-27.359-5.3806 24.924 24.924 0 0 1-5.2484-27.385 24.924 24.924 0 0 1 23.431-15.115"/>
    <path transform="matrix(.99253 -.12201 .12201 .99253 0 0)" d="m459.66 692.8a24.924 24.924 0 0 1-15.228 23.358 24.924 24.924 0 0 1-27.359-5.3806 24.924 24.924 0 0 1-5.2484-27.385 24.924 24.924 0 0 1 23.431-15.115"/>
    <path transform="matrix(.99253 -.12201 .12201 .99253 0 0)" d="m402.95 763.65a24.924 24.924 0 0 1-15.228 23.358 24.924 24.924 0 0 1-27.359-5.3806 24.924 24.924 0 0 1-5.2484-27.385 24.924 24.924 0 0 1 23.431-15.115"/>
    <path transform="matrix(-.00063399 -1 1 -.00063399 0 0)" d="m-612.64 243.54a24.924 24.924 0 0 1-15.228 23.358 24.924 24.924 0 0 1-27.359-5.3806 24.924 24.924 0 0 1-5.2484-27.385 24.924 24.924 0 0 1 23.431-15.115"/>
    <path transform="matrix(-.00063399 -1 1 -.00063399 0 0)" d="m-688.5 294.55a24.924 24.924 0 0 1-15.228 23.358 24.924 24.924 0 0 1-27.359-5.3806 24.924 24.924 0 0 1-5.2484-27.385 24.924 24.924 0 0 1 23.431-15.115"/>
   </g>
   <g fill="#fff">
    <path d="m299.11 504.08a25.183 16.606 0 0 1-9.0947 22.669 25.183 16.606 0 0 1-34.405-5.9294 25.183 16.606 0 0 1 8.8891-22.705 25.183 16.606 0 0 1 34.458 5.7936"/>
    <path d="m333.05 543.47a25.183 16.606 0 0 1-9.0948 22.669 25.183 16.606 0 0 1-34.405-5.9294 25.183 16.606 0 0 1 8.8891-22.705 25.183 16.606 0 0 1 34.458 5.7936"/>
    <path d="m516.6 688.24c-52.736 2.3697-102.16 3.1537-153.7-9.2922-30.146-2.8153-89.072 17.624-151.22 18.24-40.776 3.1899-40.911-13.406-26.317-36.911 21.632-34.365 113.75-82.145 184.87-122.46-25.895-0.71656-84.216-18.113-90.96-45.957-4.827-18.877 0.79237-41.421 21.89-47.384 22.095-6.3109 27.191-8.0931 60.14 1.7573 11.042 0.36884 22.929 13.182 32.78 19.422 13.947 15.993 30.809 28.392 34.485 57.044-0.52618 12.677-1.428 25.353-9.0749 38.03-16.129 16.349-53.27 41.058-74.232 49.961 19.955-6.3634 57.302-27.193 76.047-36.539 28.672 43.743 61.87 79.118 95.286 114.09z" fill-rule="evenodd" stroke="#000" stroke-linecap="round" stroke-linejoin="round" stroke-width="12.434"/>
   </g>
   <path d="m332.16 463.81c-2.0633 3.7737-3.1934 5.7612-2.6002 11.986 3.6614 4.2961 6.3329 8.4998 14.351 3.171 5.1351-4.4278 3.8746-7.4185 3.5526-11.452-2.718-6.0863-2.35-8.1442-6.0121-9.0943-4.4427-0.76019-6.9352 3.5778-9.2915 5.3892z" fill-rule="evenodd"/>
   <path d="m170.12 432.74c-49.277-3.1685-76.029-15.687-124.12-22.401 36.497 1.1823 53.092 4.6133 90.228 1.9676-39.703-13.139-37.723-16.572-74.722-31.74 47.699 15.815 57.73 13.044 115.25 20.87z" fill="#004900" fill-rule="evenodd"/>
   <g fill="#fff" fill-rule="evenodd" stroke="#fff" stroke-linejoin="round">
    <path d="m355.44 161.05c-8.8936-6.9866-9.5958-15.38-1.2754-25.322l-17.724 15.695 11.443-25.79-17.252 20.042 4.4328-25.814-10.043 22.071-5.6192-22.209-3.1188 25.647-9.2922-24.272c5.1726 22.576-1.0709 29.418-7.1618 43.784 19.509-8.9622 36.681-13.802 55.611-3.8309z" stroke-linecap="round" stroke-width="3.9574"/>
    <path d="m476.48 173.9c-2.1574-7.0556-7.246-12.855-15.318-17.376l12.772-21.934-20.517 16.326 6.0786-25.838-14.182 23.834-3.3641-25.438-7.1704 24.094-11.266-20.406c-0.99793 9.3091 1.3872 20.213-15.852 21.864 20.59 2.7474 57.323 15.555 68.82 24.875z" stroke-linecap="round" stroke-width="4.4167"/>
    <g>
     <path d="m468.7 228.51c6.8746-13.442 5.9148-21.66 8.369-32.155l4.7466 29.193 17.277-18.622-6.4391 23.716 25.678-12.477-15.46 17.05 30.252 1.6206-23.558 5.5891 22.563 12.953c-11.796-5.7287-23.721-6.6107-36.559 7.4881 2.459-28.948-12.41-30.988-26.869-34.357z" stroke-width="4.3575"/>
     <g stroke-width="4.9464">
      <path d="m539.5 268.86-55.5 19c11.796 6.0452 19.025 9.1283 21.5 20.5l34-10-35 2 30-14-33 4z"/>
      <path d="m527.05 357.02c12.103 4.5731 17.166 8.9322 38.629 8.8253l-50.629 7.1747z"/>
      <path d="m489.62 400.17c20.376 0.3348 42.007-6.0071 62.284-9.1715-17.76 9.7491-37.231 10.937-55.931 15.984 15.096 4.8157 29.735 9.9538 47.827 15.238-18.986-1.6999-37.03-6.4722-51.695 1.0184 11.113 5.6401 21.613 11.383 41.449 15.569l-72.096-2.8777c14.264-2.3647 31.606-26.677 28.163-35.76z"/>
     </g>
     <path d="m248.16 267.47c0.45929-18.043 0.92943-20.108 10.675-28.753-19.915-3.333-23.144-12.725-34.542-20.814l19.707 25.428-45.77-13.985 36.87 19.071h-49.584l41.956 6.357c-2.1792 9.57-17.052 9.6724-32.421 16.528 16.213-3.928 40.284-10.067 53.109-3.8319z" stroke-width="4.4469"/>
     <path d="m269.59 177.54c3.7053 16.003 4.9128 30.006 16.657 43.048-7.1936-3.1579-8.7148 1.5594-21.556 3.3416 6.2785-15.877 1.2243-31.052 4.8991-46.39z" stroke-width="4.2674"/>
     <path d="m235.25 293.61c-29.54-11.713-33.184-7.3801-33.184-7.3801l30.458 13.04z" stroke-width="4.4277"/>
    </g>
   </g>
   <path d="m99.223 628.42c-20.065 4.5791-36.05 17.486-47.198 26.263 12.14-3.8782 26.671-8.5308 39.508-9.7562 6.8201-0.17328 6.5967-0.21618 5.8008 3.7131l15.658-38.792c-3.4194 3.5821-8.3619 16.104-13.768 18.572z" fill-rule="evenodd" stroke="#000" stroke-width=".45772px"/>
  </g>
 </g>
</svg>
