<?xml version="1.0" encoding="UTF-8"?>
<!-- Created with Inkscape (http://www.inkscape.org/) -->
<svg width="300" height="400" version="1.1" viewBox="0 0 300 400" xmlns="http://www.w3.org/2000/svg" xmlns:cc="http://creativecommons.org/ns#" xmlns:dc="http://purl.org/dc/elements/1.1/" xmlns:rdf="http://www.w3.org/1999/02/22-rdf-syntax-ns#">
 <metadata>
  <rdf:RDF>
   <cc:Work rdf:about="">
    <dc:format>image/svg+xml</dc:format>
    <dc:type rdf:resource="http://purl.org/dc/dcmitype/StillImage"/>
   </cc:Work>
  </rdf:RDF>
 </metadata>
 <g transform="translate(0 -652.36)">
  <g transform="matrix(.95916 0 0 .95916 6.1126 26.804)">
   <g fill="#004900">
    <ellipse cx="135.05" cy="680.43" rx="24.68" ry="19.097"/>
    <ellipse cx="164.02" cy="680.43" rx="24.68" ry="19.097"/>
    <ellipse cx="133.84" cy="829.8" rx="24.68" ry="19.097"/>
   </g>
   <path d="m149.58 818.82v-134.67" fill="none" stroke="#004900" stroke-linecap="round" stroke-width="55"/>
   <g fill="#004900">
    <ellipse cx="165.64" cy="829.8" rx="24.68" ry="19.097"/>
    <ellipse cx="160.99" cy="748.83" rx="32.787" ry="25.37"/>
    <ellipse cx="138.32" cy="748.83" rx="32.787" ry="25.37"/>
   </g>
   <path d="m149.58 685.72v37.842" fill="none" stroke="#fff" stroke-linecap="round" stroke-width="12.511"/>
   <path d="m149.58 777.56v46.734" fill="none" stroke="#fff" stroke-linecap="round" stroke-width="12.511"/>
   <ellipse cx="149.58" cy="683.53" rx="8.992" ry="8.6975" fill="#fff"/>
   <path d="m140.23 761.82c4.2282-6.4408 15.56-6.1631 19.118 0" fill="none" stroke="#fff" stroke-linecap="round" stroke-linejoin="round" stroke-width="10.426"/>
   <path d="m140.23 743.53c4.2282-6.4408 15.56-6.1631 19.118 0" fill="none" stroke="#fff" stroke-linecap="round" stroke-linejoin="round" stroke-width="10.426"/>
  </g>
  <g transform="matrix(.95916 0 0 .95916 6.1126 235.24)">
   <g fill="#004900">
    <ellipse cx="135.05" cy="680.43" rx="24.68" ry="19.097"/>
    <ellipse cx="164.02" cy="680.43" rx="24.68" ry="19.097"/>
    <ellipse cx="133.84" cy="829.8" rx="24.68" ry="19.097"/>
   </g>
   <path d="m149.58 818.82v-134.67" fill="none" stroke="#004900" stroke-linecap="round" stroke-width="55"/>
   <g fill="#004900">
    <ellipse cx="165.64" cy="829.8" rx="24.68" ry="19.097"/>
    <ellipse cx="160.99" cy="748.83" rx="32.787" ry="25.37"/>
    <ellipse cx="138.32" cy="748.83" rx="32.787" ry="25.37"/>
   </g>
   <path d="m149.58 685.72v37.842" fill="none" stroke="#fff" stroke-linecap="round" stroke-width="12.511"/>
   <path d="m149.58 777.56v46.734" fill="none" stroke="#fff" stroke-linecap="round" stroke-width="12.511"/>
   <ellipse cx="149.58" cy="683.53" rx="8.992" ry="8.6975" fill="#fff"/>
   <path d="m140.23 761.82c4.2282-6.4408 15.56-6.1631 19.118 0" fill="none" stroke="#fff" stroke-linecap="round" stroke-linejoin="round" stroke-width="10.426"/>
   <path d="m140.23 743.53c4.2282-6.4408 15.56-6.1631 19.118 0" fill="none" stroke="#fff" stroke-linecap="round" stroke-linejoin="round" stroke-width="10.426"/>
  </g>
 </g>
</svg>
