<?xml version="1.0" encoding="UTF-8"?>
<!-- Created with Inkscape (http://www.inkscape.org/) -->
<svg width="300" height="400" version="1.1" viewBox="0 0 300 400" xmlns="http://www.w3.org/2000/svg" xmlns:cc="http://creativecommons.org/ns#" xmlns:dc="http://purl.org/dc/elements/1.1/" xmlns:rdf="http://www.w3.org/1999/02/22-rdf-syntax-ns#">
 <metadata>
  <rdf:RDF>
   <cc:Work rdf:about="">
    <dc:format>image/svg+xml</dc:format>
    <dc:type rdf:resource="http://purl.org/dc/dcmitype/StillImage"/>
   </cc:Work>
  </rdf:RDF>
 </metadata>
 <g transform="translate(0 -652.36)">
  <g transform="matrix(1.5015 0 0 1.1494 -450.65 57.293)">
   <g fill="#b93c3c">
    <circle cx="391.4" cy="540.31" r="13.404"/>
    <circle cx="408.7" cy="540.31" r="13.404"/>
    <circle cx="390.67" cy="612.17" r="13.404"/>
   </g>
   <path d="m400.08 609.92v-71.439" fill="none" stroke="#b93c3c" stroke-linecap="round" stroke-width="29.076"/>
   <g fill="#b93c3c">
    <circle cx="409.67" cy="612.17" r="13.404"/>
    <circle cx="406.9" cy="574.4" r="16.323"/>
    <circle cx="393.35" cy="574.4" r="16.323"/>
   </g>
   <g fill="none" stroke="#fff" stroke-linecap="round" stroke-width="8.3733">
    <path d="m399.97 537.21v22.661"/>
    <path d="m399.97 588.55v21.47"/>
    <path d="m399.47 574.03h1.0082" stroke-linejoin="round"/>
   </g>
  </g>
  <g transform="matrix(1.5015 0 0 1.1494 -450.65 324.27)">
   <g fill="#004900">
    <circle cx="391.4" cy="540.31" r="13.404"/>
    <circle cx="408.7" cy="540.31" r="13.404"/>
    <circle cx="390.67" cy="612.17" r="13.404"/>
   </g>
   <path d="m400.08 609.92v-71.439" fill="none" stroke="#004900" stroke-linecap="round" stroke-width="29.076"/>
   <g fill="#004900">
    <circle cx="409.67" cy="612.17" r="13.404"/>
    <circle cx="406.9" cy="574.4" r="16.323"/>
    <circle cx="393.35" cy="574.4" r="16.323"/>
   </g>
   <g fill="none" stroke="#fff" stroke-linecap="round" stroke-width="8.3733">
    <path d="m399.97 537.21v22.661"/>
    <path d="m399.97 588.55v21.47"/>
    <path d="m399.47 574.03h1.0082" stroke-linejoin="round"/>
   </g>
  </g>
  <g transform="matrix(1.5015 0 0 1.1494 -555.32 324.27)">
   <g fill="#004900">
    <circle cx="391.4" cy="540.31" r="13.404"/>
    <circle cx="408.7" cy="540.31" r="13.404"/>
    <circle cx="390.67" cy="612.17" r="13.404"/>
   </g>
   <path d="m400.08 609.92v-71.439" fill="none" stroke="#004900" stroke-linecap="round" stroke-width="29.076"/>
   <g fill="#004900">
    <circle cx="409.67" cy="612.17" r="13.404"/>
    <circle cx="406.9" cy="574.4" r="16.323"/>
    <circle cx="393.35" cy="574.4" r="16.323"/>
   </g>
   <g fill="none" stroke="#fff" stroke-linecap="round" stroke-width="8.3733">
    <path d="m399.97 537.21v22.661"/>
    <path d="m399.97 588.55v21.47"/>
    <path d="m399.47 574.03h1.0082" stroke-linejoin="round"/>
   </g>
  </g>
  <g transform="matrix(1.5015 0 0 1.1494 -346.89 324.27)">
   <g fill="#004900">
    <circle cx="391.4" cy="540.31" r="13.404"/>
    <circle cx="408.7" cy="540.31" r="13.404"/>
    <circle cx="390.67" cy="612.17" r="13.404"/>
   </g>
   <path d="m400.08 609.92v-71.439" fill="none" stroke="#004900" stroke-linecap="round" stroke-width="29.076"/>
   <g fill="#004900">
    <circle cx="409.67" cy="612.17" r="13.404"/>
    <circle cx="406.9" cy="574.4" r="16.323"/>
    <circle cx="393.35" cy="574.4" r="16.323"/>
   </g>
   <g fill="none" stroke="#fff" stroke-linecap="round" stroke-width="8.3733">
    <path d="m399.97 537.21v22.661"/>
    <path d="m399.97 588.55v21.47"/>
    <path d="m399.47 574.03h1.0082" stroke-linejoin="round"/>
   </g>
  </g>
  <g transform="matrix(1.5015 0 0 1.1494 -450.65 192.31)">
   <g fill="#004900">
    <circle cx="391.4" cy="540.31" r="13.404"/>
    <circle cx="408.7" cy="540.31" r="13.404"/>
    <circle cx="390.67" cy="612.17" r="13.404"/>
   </g>
   <path d="m400.08 609.92v-71.439" fill="none" stroke="#004900" stroke-linecap="round" stroke-width="29.076"/>
   <g fill="#004900">
    <circle cx="409.67" cy="612.17" r="13.404"/>
    <circle cx="406.9" cy="574.4" r="16.323"/>
    <circle cx="393.35" cy="574.4" r="16.323"/>
   </g>
   <g fill="none" stroke="#fff" stroke-linecap="round" stroke-width="8.3733">
    <path d="m399.97 537.21v22.661"/>
    <path d="m399.97 588.55v21.47"/>
    <path d="m399.47 574.03h1.0082" stroke-linejoin="round"/>
   </g>
  </g>
  <g transform="matrix(1.5015 0 0 1.1494 -555.32 192.31)">
   <g fill="#004900">
    <circle cx="391.4" cy="540.31" r="13.404"/>
    <circle cx="408.7" cy="540.31" r="13.404"/>
    <circle cx="390.67" cy="612.17" r="13.404"/>
   </g>
   <path d="m400.08 609.92v-71.439" fill="none" stroke="#004900" stroke-linecap="round" stroke-width="29.076"/>
   <g fill="#004900">
    <circle cx="409.67" cy="612.17" r="13.404"/>
    <circle cx="406.9" cy="574.4" r="16.323"/>
    <circle cx="393.35" cy="574.4" r="16.323"/>
   </g>
   <g fill="none" stroke="#fff" stroke-linecap="round" stroke-width="8.3733">
    <path d="m399.97 537.21v22.661"/>
    <path d="m399.97 588.55v21.47"/>
    <path d="m399.47 574.03h1.0082" stroke-linejoin="round"/>
   </g>
  </g>
  <g transform="matrix(1.5015 0 0 1.1494 -346.89 192.31)">
   <g fill="#004900">
    <circle cx="391.4" cy="540.31" r="13.404"/>
    <circle cx="408.7" cy="540.31" r="13.404"/>
    <circle cx="390.67" cy="612.17" r="13.404"/>
   </g>
   <path d="m400.08 609.92v-71.439" fill="none" stroke="#004900" stroke-linecap="round" stroke-width="29.076"/>
   <g fill="#004900">
    <circle cx="409.67" cy="612.17" r="13.404"/>
    <circle cx="406.9" cy="574.4" r="16.323"/>
    <circle cx="393.35" cy="574.4" r="16.323"/>
   </g>
   <g fill="none" stroke="#fff" stroke-linecap="round" stroke-width="8.3733">
    <path d="m399.97 537.21v22.661"/>
    <path d="m399.97 588.55v21.47"/>
    <path d="m399.47 574.03h1.0082" stroke-linejoin="round"/>
   </g>
  </g>
 </g>
</svg>
