<?xml version="1.0" encoding="UTF-8"?>
<!-- Created with Inkscape (http://www.inkscape.org/) -->
<svg width="300" height="400" version="1.1" viewBox="0 0 300 400" xmlns="http://www.w3.org/2000/svg" xmlns:cc="http://creativecommons.org/ns#" xmlns:dc="http://purl.org/dc/elements/1.1/" xmlns:rdf="http://www.w3.org/1999/02/22-rdf-syntax-ns#">
 <metadata>
  <rdf:RDF>
   <cc:Work rdf:about="">
    <dc:format>image/svg+xml</dc:format>
    <dc:type rdf:resource="http://purl.org/dc/dcmitype/StillImage"/>
   </cc:Work>
  </rdf:RDF>
 </metadata>
 <g transform="translate(0 -652.36)">
  <g transform="matrix(.9007 0 0 .97529 22.481 21.079)" fill="#142896" fill-rule="evenodd">
   <path d="m233.63 755.29c-55.491 11.489-169.25 35.508-174.98 30.42-15.982-10.875-32.954-4.258-22.851 10.399 16.24 27.58 41.083 52.953 53.054 82.844 2.2883 4.3346 4.5782 5.0095 6.8665 4.9762 34.894 0.59778 59.617-7.137 92.96-10 5.2465-0.50585 12.18 5.1971 16.078 3.4942 3.4521-1.8803 4.8887-8.5666 5.7989-12.759 6.8586-25.415 28.052-47.677 39.896-72.713 1.505-2.9948 9.845-3.5497 9.7822-6.4403-1.2192-10.817-17.304-30.706-26.6-30.221zm-23.139 33.579c12.462-0.30489-0.39856 25.045-5.5016 26.11-5.6844 0.83505-6.5904-7.3025-13.557-7.4459-5.2339 0.54881-4.0433 3.9311-9.439 5.5409-32.92 6.4648-57.052 8.7603-91.401 12.136-4.3326 0.10941-15.065-17.222-9.014-18.63 40.941-9.9372 109.78-17.444 128.91-17.711zm-16.389 50.027c4.014 6.8676-2.844 13.8-7.8092 14.564-30.193 4.515-78.254 12.147-82.007 8.2309-2.6688-2.8443-8.0825-10.979-7.2218-16.538 11.136-3.7156 92.3-14.424 97.038-6.2566z"/>
   <path d="m123.1 656.13c-18.371-7.4009-20.372 5.8322-17.903 14.338 6.2135 20.201 14.429 28.632 24.539 42.678 1.8052 2.4178 3.8088 7.0588 3.505 9.2707l-2.8032 207.6c0.0245 6.4984-1.2239 27.055-5.3371 23.814-16.257-12.357-21.171-19.293-47.245-51.546-11.141-14.929-19.889-6.9441-6.3656 12.591 42.459 54.624 46.079 59.834 46.707 115.11 1.6238 29.179 31.759 24.649 34.572 6.1383 3.4295-19.972-1.6473-51.783-1.8499-73.762-0.77433-84.028-0.85925-158.34 12.845-239.53 2.5938-12.667 22.99-23.066 33.975-26.711 4.8661-1.6196 10.287-13.974 0.90028-14.452-25.18-2.6488-52.283-15.551-75.539-25.529z"/>
   <path d="m90.059 749.96c-28.498-1.3074-7.4078 15.787-1.0034 15.355 35.469-3.2224 93.935-11.665 130.1-19.89 2.5023-0.0783-0.19108-17.19-17.338-18.919-5.2128-0.25484-4.3168 2.6012-10.479 4.8351-27.633 6.0023-76.156 20.221-101.28 18.619z"/>
   <path d="m101.08 860.47c-20.041 38.808-38.468 52.626-99.097 78.811-23.46 9.3928-21.788 23.654 6.6447 13.896 77.169-29.987 93.351-48.707 105.94-85.053z"/>
   <path d="m148.9 861.24c24.812 28.939 58.744 106.95 77.56 95.367 14.853-9.5402 33.95-10.668 42.066-8.4817 10.623 2.7987 11.134 7.7546 17.08 10.97 15.635 6.5882 12.364-2.0207 6.9373-9.5946-14.043-21.6-80.571-34.668-122.31-92.571z"/>
  </g>
 </g>
</svg>
