<?xml version="1.0" encoding="UTF-8"?>
<!-- Created with Inkscape (http://www.inkscape.org/) -->
<svg width="300" height="400" version="1.1" viewBox="0 0 300 400" xmlns="http://www.w3.org/2000/svg" xmlns:cc="http://creativecommons.org/ns#" xmlns:dc="http://purl.org/dc/elements/1.1/" xmlns:rdf="http://www.w3.org/1999/02/22-rdf-syntax-ns#">
 <metadata>
  <rdf:RDF>
   <cc:Work rdf:about="">
    <dc:format>image/svg+xml</dc:format>
    <dc:type rdf:resource="http://purl.org/dc/dcmitype/StillImage"/>
   </cc:Work>
  </rdf:RDF>
 </metadata>
 <g transform="translate(0 -652.36)">
  <g transform="matrix(1.0044 0 0 1.0044 -10.101 -17.441)">
   <g transform="matrix(.96972 0 0 1 4.8297 0)" fill="#19328c" fill-rule="evenodd">
    <path d="m180.01 689.47c-6.6086-0.48504-30.383 25.265-36.606 34.322-5.695 6.905 4.7949 11.13 8.8623 16.984 5.1335 8.0607 1.2215 89.907-8.3375 135.14l15.468-2.3104c10.152-37.07 17.662-105.92 25.262-112.08 7.2344-5.6488 23.672-5.0544 21.675-13.417-4.1332-18.672-20.447-58.425-26.324-58.636z"/>
    <path d="m122.02 796.93c-18.916 0.87973-28.798 10.697-1.0492 14.5 32.699 1.3444 100.91-5.9589 100.99-15.211 0.50007-12.386-9.6802-30.361-15.727-30.25-4.81 0.0666-14.607 6.082-15.497 13.352-0.7723 8.5244-50.993 16.589-68.718 17.608z"/>
    <path d="m153.67 848.85c25.632-10.563 45.928-20.434 70.167-33.785 8.5042-4.3986 16.459 4.652 14.716 10.495-1.1333 3.7978-14.086 26.768-2.696 27.664-10.298 8.0297-38.07 31.797-54.005 67.804l-24.83-2.0983c10.656-26.666 51.369-71.181 48.611-74.101-4.7014-5.0863-42.155 13.54-50.338 11.191z"/>
    <path d="m58.29 893.37c40.084-21.63 128.92-41.185 200.56-42.297 9.1157-0.5564 30.913 52.374 30.721 61.518-0.59867 26.028-45.433 88.498-73.247 126.12-5.793 6.4227-18.898 4.8464-27.696-0.6182l-47.537-31.564c-4.8044-4.0497-3.0043-12.591 5.05-7.7436 10.641 6.55 32.405 14.858 44.465 16.434 11.075 1.4727 48.138-86.153 50.355-100.93 1.3028-6.7088-7.4831-39.244-23.333-40.273-107.24 3.9932-143.15 35.796-157.54 37.248z"/>
    <path d="m35.177 856.07c-8.3291 2.4734-5.5434 12.924-4.3591 19.235 9.7674 43.249 46.333 125.35 53.642 130.24 22.498 12.482 31.295 4.1632 30.913-5.2458-1.1366-9.1203-30.281-84.443-48.576-124.2-6.3177-12.702-22.054-22.438-31.62-20.029z"/>
    <path d="m69.202 835.83c-13.711-6.4484-9.2841-18.129 9.2624-11.096 42.105 15.716 58.237 41.971 71.995 93.682l-15.468 4.1966c-13.277-48.922-29.091-67.069-65.79-86.783z"/>
    <path d="m121.22 943.33c-15.905 5.9033-13.032-18.011-2.259-21.031 74.131-23.15 77.605-21.158 89.998-16.23 11.852 4.7626 16.094 21.95 0.35075 21.099-31.187-1.9689-55.587 2.5493-88.09 16.163z"/>
    <path d="m124.26 959.25c-10.222 2.7076-7.0172 18.269 3.2776 15.95 26.744-5.6633 45.57-9.0323 73.051-12.997 8.2819-1.3747 8.0226-22.578 0.5386-25.884-10.089-3.0273-11.219 3.618-15.652 6.1128-12.14 6.2076-37.22 10.448-61.215 16.817z"/>
    <path d="m146.8 925.41c2.2328 25.8 4.9146 54.748 1.7486 80.549l17.523 9.6443c3.1272-29.675 6.5145-63.196 4.2514-92.871z"/>
   </g>
  </g>
 </g>
</svg>
