<?xml version="1.0" encoding="UTF-8"?>
<!-- Created with Inkscape (http://www.inkscape.org/) -->
<svg width="300" height="400" version="1.1" viewBox="0 0 300 400" xmlns="http://www.w3.org/2000/svg" xmlns:cc="http://creativecommons.org/ns#" xmlns:dc="http://purl.org/dc/elements/1.1/" xmlns:rdf="http://www.w3.org/1999/02/22-rdf-syntax-ns#">
 <metadata>
  <rdf:RDF>
   <cc:Work rdf:about="">
    <dc:format>image/svg+xml</dc:format>
    <dc:type rdf:resource="http://purl.org/dc/dcmitype/StillImage"/>
   </cc:Work>
  </rdf:RDF>
 </metadata>
 <g transform="translate(0 -652.36)">
  <g transform="matrix(.85009 0 0 .93539 19.53 57.109)" fill="#19328c" fill-rule="evenodd">
   <path d="m18.303 756.6c-9.5861 1.2534-21.044-11.13-7.3444-14.66 43.69-8.4452 191.76-31.914 208.72-38.97 14.882-4.4766 48.779 19.646 69.772 30.824 13.035 7.6259 7.0975 16.274-2.9378 20.175-8.1247 2.4474-55.981 6.8469-81.613 3.759-4.8897-0.5-3.0341-12.309-13.955-14.002-50.104-9.3103-121.71 6.6095-172.64 12.874z"/>
   <path d="m202.3 755.16c-1.2756 3.7887-1.9248 9.059-4.6231 10.317-5.1793 1.7767-10.933 0.56235-13.808 5.0008-4.1896 6.7316-29.81 25.813-47.581 39.893-5.0387 3.9922-13.559 1.0569-14.109-6.3865l-0.0687 27.464 12.62-0.6238c10.987-8.5889 41.279-37.359 54.83-37.696 10.772-0.85493 23.241-4.1664 26.21-11.339 2.4997-6.4074-4.9142-10.93-4.2286-14.504 1.0695-4.1767 9.936-8.4809 12.91-8.5139 5.0762-0.0563-20.884-7.6451-22.152-3.6116z"/>
   <path d="m44.513 845.65c52.141-12.401 175.2-50.85 193.24-43.658 22.34 10.871 63.544 36.446 64.114 47.242 0.22691 10.504 0.0984 11.398-8.7582 19.874-13.17 12.931-55.354 77.186-61.499 101.91-1.4221 6.2715-0.44292 18.402-5.1672 23.428-6.6134 7.3652-88.046-1.1296-141.06-3.2294-17.921-0.60114-26.244-18.982 0.53305-19.54 34.105-0.61411 92.368-2.0223 99.275-10.493 6.2388-7.953 49.265-97.451 49.365-107.09 0.10549-6.0457-10.736-20.21-17.193-24.294-7.8819-5.5704-118.39 28.031-167.58 35.019z"/>
   <path d="m22.79 858.99c13.914 26.906 43.91 76.585 55.89 124.52l32.084-2.1264c-7.9363-36.067-27.317-97.354-46.123-127.42-33.87-53.703-70.168-46.595-41.852 5.0304z"/>
   <path d="m121.16 783.92c-3.2126-15.545-15.495-12.915-13.587 3.4969l18.464 193.39 14.143-0.69937z"/>
   <path d="m189.66 785.12h-13.324l-25.127 191.88h12.92z"/>
  </g>
 </g>
</svg>
