<?xml version="1.0" encoding="UTF-8"?>
<!-- Created with Inkscape (http://www.inkscape.org/) -->
<svg width="300" height="400" version="1.1" viewBox="0 0 300 400" xmlns="http://www.w3.org/2000/svg" xmlns:cc="http://creativecommons.org/ns#" xmlns:dc="http://purl.org/dc/elements/1.1/" xmlns:rdf="http://www.w3.org/1999/02/22-rdf-syntax-ns#">
 <metadata>
  <rdf:RDF>
   <cc:Work rdf:about="">
    <dc:format>image/svg+xml</dc:format>
    <dc:type rdf:resource="http://purl.org/dc/dcmitype/StillImage"/>
   </cc:Work>
  </rdf:RDF>
 </metadata>
 <g transform="translate(0 -652.36)">
  <g transform="matrix(.93642 0 0 .93642 5.1543 91.361)" fill="#142896" fill-rule="evenodd">
   <path d="m29.908 770.38c-6.1942 8.0226 21.429 29.442 41.676 35.892 6.5431 2.439 26.83-18.714 18.905-23.557-21.791-11.286-56.179-18.285-60.581-12.334z"/>
   <path d="m67.104 774.19c-24.969 93.886-17.657 83.92-60.675 141.67-6.935 17.585 15.869 32.701 27.034 25.98 15.451-10.347 32.9-22.278 43.788-35.681 19.77-24.336 110.55-91.983 171.96-110.95 12.366-3.8203 23.894-3.271 35.181-5.7106 8.4837-2.4116-0.039-15.018-4.6985-19.79-15.705-16.549-43.366-26.34-52.425-19.817-3.975 1.9657 1.9299 29.481-2.8914 32.064-46.598 22.808-132.99 81.675-172.25 111.82-1.4695 0.68531 1.3426-5.3023 2.3122-7.2436 8.6261-17.269 18.011-65.73 22.725-115.04 0.44615-11.079-8.4122-7.2254-10.059 2.7041z"/>
   <path d="m114.1 711.6c-10.019-1.0634-15.49 8.8087-14.343 18.463 0.97323 8.1876 1.2517 18.674 9.8321 27.561 5.6468 6.9978 1.4516 60.098 1.343 105.01-8e-3 3.1477-2.4216 3.8144-2.3676 6.8487-0.0102 7.9119 4.1347 27.856 9.2784 28.021 4.8043-0.23729 11.742-7.6051 12.102-18.16 2.7064-49.996 7.297-115.74 11.256-124.15 4.9885-10.59 13.589-7.7423 14.45-17.856 1.2724-14.155-19.131-22.603-41.552-25.735z"/>
   <path d="m185.33 661.73c-11.041 2e-5 -32.463 30.339-32.524 36.721 0.11709 8.1973 20.741 15.699 20.326 27.907-0.39117 69.66-18.683 181.14-4.6838 199.36 20.54 24.537 118.85 1.8659 124.94-3.1475 9.6937-7.9451 13.911-15.912 10.492-23.956-3.665-8.8543-76.701 11.158-108.86-0.69943-13.499-4.9573-3.9849-100.61-3.7518-156.8 0.6848-12.785 25.766-27.268 25.879-32.874 0.39967-10.883-18.369-45.203-31.824-46.513z"/>
  </g>
 </g>
</svg>
