<?xml version="1.0" encoding="UTF-8"?>
<!-- Created with Inkscape (http://www.inkscape.org/) -->
<svg width="300" height="400" version="1.1" viewBox="0 0 300 400" xmlns="http://www.w3.org/2000/svg" xmlns:cc="http://creativecommons.org/ns#" xmlns:dc="http://purl.org/dc/elements/1.1/" xmlns:rdf="http://www.w3.org/1999/02/22-rdf-syntax-ns#">
 <metadata>
  <rdf:RDF>
   <cc:Work rdf:about="">
    <dc:format>image/svg+xml</dc:format>
    <dc:type rdf:resource="http://purl.org/dc/dcmitype/StillImage"/>
   </cc:Work>
  </rdf:RDF>
 </metadata>
 <g transform="translate(0 -652.36)">
  <g transform="matrix(.71142 0 0 .71142 -140.43 448.29)" fill="#004900" fill-rule="evenodd">
   <path d="m409.81 440.81c34.623 13.502 72.537 107.47 100.97 181.52 1.3913 3.0127 2.2377 6.2807 5.6989 8.0712 25.981 14.66 56.135 36.472 68.7 46.743 23.444 16.6 35.691 5.6798 29.305-10.12-4.8239-12.172-23.578-40.29-27.773-49.287-5.3485-9.9779-19.29-21.423-37.286-34.999-35.855-25.865-57.629-82.487-122.29-162.61-3.1522-2.9904-19.008 14.443-17.324 20.678z"/>
   <path d="m423.62 432.98c-78.385 110.34-127.94 173.35-203.97 220.5-21.022 14.303-25.419 2.3411-9.1924-10.607 93.497-76.129 113.84-140.11 192.05-224.68z"/>
   <path d="m401.08 388.14c-30.084 27.275-48.126 58.97-85.147 77.979-16.656 10.416-17.189 22.165 4.0931 19.502 34.748-5.5705 73.281-26.556 101.81-43.313 24.084-14.968 21.091-89.467-20.757-54.168z"/>
   <path d="m473.09 378.63c-8.0207 26.87-15.132 47.691-31.252 75.391l18.53 17.014c25.673-51.401 34.478-76.259 47.314-80.033 4.272-2.3198 1.6331-10.047-0.56497-14.073-4.6128-8.449-9.2598-18.302-15.066-24.312-12.599-12.07-14.785 14.812-18.961 26.012z"/>
   <path d="m525.87 454.91c-5.5407-6.01-11.798-3.8924-16.342 6.7665-4.0805 9.9622-25.347 37.038-51.455 62.217-8.908 9.0819-0.99657 17.81 13.054 7.928 23.509-22.225 42.38-39.495 56.808-42.844 6.5576-1.2916 18.037 2.9159 16.748-6.0103-2.328-10.736-9.922-19.256-18.814-28.057z"/>
   <path d="m291.14 495.74c-18.985-18.224-34.162-11.582-14.204 15.653 41.324 56.909 66.675 67.774 56.668 88.652l19.171 6e-3c10.562-11.407 6.7814-4.0151-0.95764-38.694-2.206-9.8854-31.089-24.825-60.677-65.616z"/>
   <path d="m312.32 554.82-27.339 26.172c34.687-2.8429 50.37-0.45207 85.666-20.679 24.818-13.682 9.3587-25.978-4.4684-21.25-29.987 12.626-28.043 11.234-53.858 15.757z"/>
   <path d="m278.31 635.42c-7.8252 4.6389-17.681-3.4902-12.315 8.803 5.3274 9.2925 16.154 8.2735 26.717 4.4009 9.1358-3.3891 71.715-51.799 112.08-57.507l2.1432-27.027c-65.508 22.159-120.91 66.042-128.62 71.33z"/>
   <path d="m426.87 485.78c-3.1908-3.7158-11.419-9.2512-15.636 4.0796-0.96026 6.2672 1.5368 12.494 0.64722 22.125-4.2116 57.883-16.979 75.42-21.179 99.269-1.9355 12.712 3.7474 21.592 12.918 3.3374 6.8517-20.535 14.513-35.096 37.882-94.819 1.556-10.547-4.2229-22.314-14.632-33.993z"/>
   <path d="m352.09 608.31-15.286 8.0743c9.5478 22.704-13.156 103.22-30.129 101.91-20.396-2.1256-40.398-17.087-55.567-28.001l-6.8703 0.63016c16.881 27.586 39.198 59.947 63.667 64.406 7.7044 1.2192 22.747-8.4544 26.735-15.058 29.581-60.787 39.331-91.751 33.128-109.09-2.8426-7.9443-12.717-13.94-15.678-22.876z"/>
   <path d="m344.59 659.1-2.1022-18.395c-37.057 12.706-65.78 33.735-94.641 38.107-11.476 1.5395-20.163-2.3063-28.064-7.6327-5.3216-4.2569-7.8885-0.63662-6.8175 4.9275 2.9929 11.732 4.7148 11.44 12.111 17.205 6.9139 4.2592 12.473 4.5566 23.638 3.786 28.294-2.2201 64.481-27.745 95.877-37.997z"/>
   <path d="m404.43 591.79-8.7308 26.949c32.171-4.2836 49.871-6.046 78.518-16.541 22.25-16.457 10.383-20.907-3.4006-22.333-39.388 3.2834-26.079 6.7976-66.387 11.926z"/>
   <path d="m441.25 600.2-21.25 5.9818c-0.493 41.257 0.96768 49.103-3.3501 59.747-13.116 25.029-2.4191 29.64-63.805 75.315-8.5931 6.2222-0.71461 18.324 9.2823 16.441 42.482-7.0966 79.341-32.537 81.813-42.051 5.7893-28.218 0.60878-70.231-2.6896-115.43z"/>
   <path d="m355.05 652.4-1.24 24.699c-5.0258-1.644 99.956-7.8479 163.57-3.1887 8.3879-0.31554 20.892 0.17295 18.955-7.2922-14.302-21.139-22.105-23.508-30.753-24.521-2.9899 0.26289-8.5861 3.0525-12.608 2.702-25.404 2.1586-87.694 6.1925-137.92 7.6008z"/>
   <path d="m467.47 708c16.456 11.809 23.18 23.603 27.442 47.65 0.48027 2.7097-0.53953 7.3647 7.2734 8.7237 28.717 4.9996 57.747-8.7338 60.298-22.096 1.5992-27.282-51.934-50.902-89.276-47.748-7.694 1.2896-9.1278 11.019-5.7374 13.471z"/>
  </g>
 </g>
</svg>
